<svg width="53" height="49" viewBox="0 0 53 49" fill="none" xmlns="http://www.w3.org/2000/svg">
<path d="M23.564 48.7492C23.1024 48.7492 22.7255 48.3723 22.7255 47.9107C22.7255 34.2038 23.6363 25.6603 42.305 9.53602C42.6519 9.23436 43.1829 9.27082 43.4875 9.62422C43.7886 9.97469 43.7492 10.5021 43.3987 10.8073C25.284 26.453 24.4031 34.6924 24.4031 47.9107C24.4031 48.3723 24.0262 48.7492 23.564 48.7492Z" fill="white"/>
<mask id="mask0_154_2524" style="mask-type:luminance" maskUnits="userSpaceOnUse" x="22" y="0" width="31" height="37">
<path d="M22.7014 0H52.1604V36.1243H22.7014V0Z" fill="white"/>
</mask>
<g mask="url(#mask0_154_2524)">
<path d="M24.5866 36.009C24.4225 36.009 24.2584 35.9632 24.1114 35.8614C23.7316 35.5998 23.6328 35.0788 23.895 34.6954C26.0472 31.57 28.9985 30.8561 32.1239 30.0993C36.0778 29.1391 40.5556 28.0548 45.5674 22.2039C48.6957 18.5581 49.0985 12.9825 49.4525 8.06185C49.5965 6.0702 49.7341 4.16029 50.0387 2.45325C48.7545 2.94484 47.0745 3.4035 45.1222 3.9339C38.5575 5.71974 29.5689 8.16652 25.9849 14.4825C24.2226 17.5885 23.9609 21.4212 25.2122 25.8797C25.3363 26.3254 25.0746 26.7905 24.6289 26.9152C24.1896 27.0393 23.7216 26.7776 23.594 26.3319C22.2245 21.4277 22.5355 17.1657 24.5272 13.6569C28.4552 6.73173 37.8336 4.1797 44.683 2.31565C47.392 1.57885 49.7341 0.939665 50.7726 0.248733C51.0643 0.0523321 51.4477 0.0617406 51.7323 0.268138C52.0139 0.478064 52.1421 0.838524 52.0433 1.17546C51.4935 3.10537 51.3165 5.57214 51.1266 8.18298C50.7532 13.3623 50.3304 19.2297 46.8416 23.2982C41.4759 29.559 36.51 30.7609 32.5202 31.7276C29.4707 32.4679 27.0628 33.0507 25.2775 35.6486C25.1134 35.8844 24.8518 36.009 24.5866 36.009Z" fill="white"/>
</g>
<path d="M23.7345 42.0928C23.4105 42.0928 23.1059 41.9058 22.9647 41.5912C22.1292 39.7107 20.9337 37.572 19.5089 35.4063C16.1183 30.2399 11.834 25.4375 8.84327 23.4488C8.45988 23.1936 8.35521 22.6726 8.61041 22.2862C8.8662 21.8993 9.38661 21.7946 9.77353 22.0534C12.98 24.1862 17.3532 29.0674 20.9108 34.486C22.385 36.7235 23.6263 38.9474 24.4977 40.9096C24.6877 41.3324 24.4948 41.8305 24.072 42.0175C23.9609 42.0663 23.8462 42.0928 23.7345 42.0928Z" fill="white"/>
<mask id="mask1_154_2524" style="mask-type:luminance" maskUnits="userSpaceOnUse" x="0" y="13" width="22" height="23">
<path d="M0 13.3935H21.196V35.8232H0V13.3935Z" fill="white"/>
</mask>
<g mask="url(#mask1_154_2524)">
<path d="M20.2098 35.7832C19.7482 35.7832 19.3713 35.4099 19.3713 34.9441C19.3613 25.8503 19.1291 23.0954 13.9238 20.1241C10.9067 18.4006 9.51128 18.0566 7.74543 17.6179C6.43531 17.2904 4.85998 16.9005 2.31441 15.8685C2.60901 16.9429 2.8454 18.1254 3.09061 19.3544C4.37192 25.775 5.82258 33.0507 16.066 33.6569C16.5282 33.6834 16.8816 34.0797 16.8522 34.5413C16.8258 35.0035 16.423 35.3569 15.9678 35.3275C4.43072 34.6531 2.70427 25.9979 1.44648 19.6819C1.06662 17.7884 0.712626 15.9997 0.152236 14.6954C0.014638 14.3779 0.0869653 14.011 0.332761 13.7687C0.578556 13.5264 0.948425 13.4576 1.26302 13.5982C4.73532 15.1411 6.54997 15.5933 8.14882 15.9897C9.96641 16.4383 11.5388 16.8317 14.7559 18.6693C20.7338 22.0799 21.0384 25.5128 21.0484 34.9441C21.0484 35.4063 20.672 35.7832 20.2098 35.7832Z" fill="white"/>
</g>
</svg>
