<svg width="56" height="49" viewBox="0 0 56 49" fill="none" xmlns="http://www.w3.org/2000/svg">
<path d="M43.9059 48.7231C43.6831 48.6971 42.9235 48.6103 42.218 48.53C39.0094 48.165 35.2905 47.1041 32.6546 45.802C27.1171 43.0665 23.905 38.9415 23.5085 34.057L23.4159 32.923L22.299 32.5592C17.3861 30.9593 13.2989 27.4317 10.795 22.6307C10.4618 21.9917 10.1694 21.4478 10.1451 21.4221C10.1209 21.3963 8.54544 22.6875 6.64381 24.2913C4.25179 26.3087 3.08719 27.2073 2.86421 27.2073C2.02743 27.2073 0.310604 24.3888 0.0577779 22.6C-0.107033 21.4343 0.0924033 20.1853 0.507727 19.769L0.765809 19.5111H8.25964H15.7532L16.0233 19.7811C16.3484 20.1062 16.3536 20.175 16.0834 20.5612L15.8732 20.8613H13.653C12.4319 20.8613 11.4327 20.8932 11.4327 20.9322C11.4327 20.9712 11.6404 21.4154 11.8942 21.9193C12.7405 23.5997 14.0155 25.3492 15.4086 26.7412C16.9529 28.2844 18.3833 29.3332 20.1417 30.2117C21.3343 30.8074 23.1745 31.5296 23.4914 31.5263C23.5816 31.5255 23.7799 30.9976 23.9422 30.327C24.6719 27.3123 26.8579 24.0244 29.5983 21.8199L30.6087 21.0069L24.6055 20.968C19.9081 20.9374 18.5641 20.8908 18.4269 20.7538C18.1811 20.5083 18.1125 16.7384 18.3205 14.9204C18.5366 13.0334 19.2339 10.297 19.912 8.67388C20.9829 6.1111 22.3249 4.16424 24.3634 2.21679C26.1062 0.551665 27.1283 -0.153219 27.5377 0.0276102C27.7857 0.137137 28.8366 2.79593 33.5888 15.3378C37.56 25.8183 39.4051 30.5282 39.5508 30.5567C39.8641 30.6178 42.0835 29.7511 42.9695 29.2215C45.3587 27.7937 46.8864 25.2611 47.191 22.2229C47.4823 19.3198 46.7588 17.6096 44.8401 16.6653C43.9009 16.2031 42.0233 16.1953 41.1651 16.6501C39.8634 17.34 38.999 18.5208 38.7743 19.9163C38.6515 20.6797 38.5047 20.8614 38.0112 20.8614C37.4985 20.8614 37.3684 20.5085 37.5214 19.5331C37.8366 17.5221 39.3545 15.8136 41.3822 15.1873C42.8269 14.7411 44.5465 14.9238 45.7957 15.6562C46.6334 16.1474 47.5938 17.2012 48.0271 18.105L48.4212 18.9266L51.5422 19.7128C53.2586 20.1453 54.7489 20.585 54.854 20.6899C55.0959 20.9319 55.0986 21.3283 54.8656 21.567C54.7638 21.6687 53.321 22.1057 51.6589 22.5381C49.9968 22.9706 48.5709 23.3771 48.4901 23.4416C48.4091 23.506 48.2671 23.8981 48.1742 24.313C47.8144 25.9205 46.3967 28.1978 45.0288 29.3653C44.1203 30.1407 42.4 31.0781 41.1566 31.4753C40.4844 31.69 39.933 31.9071 39.9312 31.9577C39.9312 32.0084 41.2998 35.6727 42.9763 40.1008L46.0246 48.1519L45.8086 48.4814C45.5883 48.8177 45.174 48.8705 43.9111 48.7232L43.9059 48.7231ZM44.2434 47.3258C44.2434 47.2517 42.9593 43.8036 41.3899 39.6633C36.217 26.0174 34.4988 21.474 34.356 21.0638C34.1928 20.5949 33.9817 20.3174 33.9817 20.5717C33.9817 20.6649 33.6629 20.8834 33.273 21.0573C30.5785 22.2591 27.7753 25.0165 26.2545 27.9607C25.251 29.9041 24.9088 31.2523 24.8864 33.3508C24.8703 34.8491 24.9141 35.2537 25.1842 36.114C25.836 38.1895 26.9399 39.898 28.6782 41.5213C32.1576 44.7708 37.2691 46.7367 44.0747 47.4431C44.1672 47.4523 44.2434 47.3999 44.2434 47.3258ZM5.83116 23.2579L8.59368 20.9288L5.06073 20.8927C2.32452 20.8648 1.5034 20.895 1.4192 21.0278C1.2308 21.3246 1.29719 22.4274 1.5529 23.2492C1.81521 24.092 2.69493 25.587 2.92845 25.587C3.00594 25.587 4.31166 24.5389 5.83116 23.2579ZM50.132 21.5779C50.9035 21.378 51.5345 21.1773 51.5345 21.1319C51.5345 21.0866 50.9422 20.9074 50.2181 20.7338C49.4941 20.5602 48.8258 20.3898 48.7329 20.3552C48.6094 20.3092 48.5642 20.5137 48.5642 21.1169C48.5642 21.5704 48.6011 21.9415 48.6473 21.9415C48.6925 21.9415 49.3606 21.7779 50.132 21.5779ZM32.5463 16.3043C31.8494 14.4663 30.3226 10.4269 29.1537 7.32781C27.9846 4.22872 26.9841 1.70718 26.9299 1.72441C26.8756 1.74165 26.3753 2.14465 25.8173 2.62004C22.8957 5.10912 20.8163 8.82409 19.953 13.0975C19.6085 14.8021 19.3427 17.9556 19.4625 18.9145L19.5538 19.6461H26.6836H33.8134L32.5463 16.3043ZM11.6565 39.1124C11.3645 38.7896 11.3747 38.6076 11.7028 38.2791C11.9467 38.0352 12.153 38.0091 13.8333 38.0091C15.8542 38.0091 16.2935 38.1382 16.2935 38.7323C16.2935 39.304 16.0848 39.3593 13.9246 39.3593C12.115 39.3593 11.8543 39.331 11.6565 39.1124ZM18.8015 39.1472C18.319 38.6647 18.7795 38.0091 19.602 38.0091C20.394 38.0091 20.9141 38.7358 20.4526 39.1973C20.213 39.4369 19.056 39.4018 18.8015 39.1472ZM42.7907 21.2225C41.7761 20.659 41.7722 19.1862 42.7791 18.5694C43.3408 18.2269 43.782 18.2244 44.3334 18.5602C45.2764 19.1352 45.4095 20.2807 44.619 21.0192C44.1646 21.4438 43.3479 21.5342 42.786 21.2222L42.7907 21.2225ZM43.7781 20.0394C43.9172 19.8143 43.6043 19.5561 43.4181 19.7424C43.2622 19.8982 43.3602 20.1862 43.5683 20.1862C43.6342 20.1862 43.7281 20.1202 43.7781 20.0394ZM3.67897 14.9783C3.16962 14.4689 3.63036 13.8402 4.51421 13.8402C4.83735 13.8402 5.15597 13.9285 5.27984 14.0524C5.57326 14.3457 5.5469 14.8815 5.23128 15.0506C4.8348 15.2628 3.92093 15.2202 3.67897 14.9783ZM8.01102 14.9435C7.72049 14.6225 7.72803 14.3409 8.03417 14.0636C8.24941 13.8689 8.69335 13.8401 11.4862 13.8401C13.4374 13.8401 14.7934 13.8949 14.9523 13.9799C15.2483 14.1383 15.3082 14.7716 15.0518 15.0283C14.9344 15.1456 13.9703 15.1904 11.562 15.1904C8.50975 15.1904 8.21608 15.1699 8.01102 14.9435ZM13.5356 10.9275C13.0531 10.445 13.5136 9.78951 14.336 9.78951C15.128 9.78951 15.6484 10.5162 15.1868 10.9777C14.9472 11.2173 13.7902 11.1822 13.5356 10.9275Z" fill="white"/>
</svg>
