<svg width="36" height="50" viewBox="0 0 36 50" fill="none" xmlns="http://www.w3.org/2000/svg">
<path d="M14.9718 49.6865C11.6956 49.1704 7.54611 46.9222 5.07791 44.326C1.59735 40.6648 0 36.5567 0 31.2687C0 25.4661 1.85329 22.1544 9.58935 14.134C15.1365 8.38305 16.8615 5.70302 17.382 2.02597C17.7189 -0.353877 18.2661 -0.541152 20.4879 0.963049C27.2038 5.50955 33.6657 16.6283 35.4526 26.711C37.7062 39.4276 32.9411 47.6839 22.2674 49.5551C19.0907 50.1121 17.8187 50.135 14.9718 49.6865ZM24.7754 46.9401C28.8207 45.5632 32.1177 42.1973 33.2131 38.3265C35.8471 29.0184 31.0967 14.2357 22.7092 5.63889C21.1448 4.03542 19.7665 2.72367 19.6464 2.72395C19.526 2.72422 19.1573 3.63206 18.826 4.74136C17.927 7.75162 15.9247 10.5077 10.7425 15.8675C5.79679 20.9829 3.86701 23.5107 2.8009 26.2714C0.626359 31.903 2.44441 39.2642 7.04482 43.4543C9.13054 45.354 12.2555 47.2548 12.6517 46.8648C12.8877 46.6327 14.2632 41.1582 14.2518 40.4966C14.2518 40.2677 12.636 38.683 10.6696 36.975C8.70319 35.2671 7.1518 33.6998 7.22216 33.4924C7.29272 33.2849 7.60746 32.9554 7.92188 32.7602C8.37866 32.4769 9.11943 32.9549 11.5978 35.1304C13.3052 36.6291 14.8122 37.7247 14.9469 37.5648C15.0818 37.4049 15.6384 35.4238 16.1842 33.1623L17.1763 29.0505L15.0047 26.4671C12.7714 23.8106 12.3954 22.8605 13.4234 22.4724C14.0078 22.2517 14.7639 22.9138 16.6701 25.3153C17.1139 25.8746 17.5772 26.2338 17.6992 26.1136C17.8216 25.9935 18.2773 24.4373 18.712 22.6554C19.5142 19.3669 20.2353 18.2851 21.0752 19.1114C21.3958 19.4271 21.1371 21.0094 19.9727 25.8726C19.1363 29.3645 18.5311 32.2992 18.6274 32.3939C18.725 32.4887 20.3484 31.9964 22.238 31.2998C25.9186 29.9431 26.9141 29.8693 26.9141 30.9535C26.9141 31.668 26.9351 31.6609 20.6972 34.0271L17.6881 35.1696L16.3793 40.6154C15.6596 43.6106 14.9618 46.3996 14.8284 46.8131C14.5003 47.8308 15.1126 47.9681 19.2496 47.8032C21.4358 47.716 23.3947 47.41 24.7754 46.9401Z" fill="#E8FFD3"/>
</svg>
