<svg width="38" height="58" viewBox="0 0 42 58" fill="none" xmlns="http://www.w3.org/2000/svg">
<path d="M17.4671 57.6363C13.6449 57.0376 8.8038 54.4297 5.92422 51.4182C1.86357 47.1712 0 42.4057 0 36.2717C0 29.5406 2.16218 25.6992 11.1876 16.3955C17.6593 9.72434 19.6718 6.6155 20.279 2.35013C20.672 -0.410498 21.3104 -0.627737 23.9026 1.11714C31.7377 6.39108 39.2767 19.2888 41.3614 30.9848C43.9906 45.736 38.4313 55.3133 25.9786 57.4839C22.2724 58.13 20.7885 58.1566 17.4671 57.6363ZM28.9047 54.4505C33.6241 52.8533 37.4707 48.9488 38.7486 44.4587C41.8217 33.6613 36.2795 16.5134 26.4941 6.54111C24.669 4.68109 23.0609 3.15945 22.9207 3.15978C22.7803 3.16009 22.3502 4.21319 21.9637 5.49998C20.9148 8.99188 18.5788 12.1889 12.533 18.4063C6.76292 24.3401 4.51151 27.2725 3.26772 30.4748C0.730752 37.0074 2.85181 45.5465 8.21896 50.407C10.6523 52.6106 14.2981 54.8155 14.7603 54.3631C15.0356 54.0939 16.6404 47.7435 16.6271 46.976C16.6271 46.7105 14.742 44.8723 12.4478 42.891C10.1537 40.9098 8.34377 39.0918 8.42585 38.8511C8.50817 38.6105 8.87537 38.2283 9.24219 38.0019C9.7751 37.6732 10.6393 38.2277 13.5308 40.7512C15.5227 42.4898 17.281 43.7606 17.4381 43.5752C17.5955 43.3897 18.2448 41.0916 18.8816 38.4683L20.039 33.6986L17.5055 30.7018C14.9 27.6203 14.4614 26.5182 15.6606 26.068C16.3424 25.812 17.2246 26.58 19.4485 29.3657C19.9662 30.0145 20.5067 30.4312 20.6491 30.2918C20.7919 30.1525 21.3235 28.3472 21.8307 26.2802C22.7665 22.4656 23.6078 21.2108 24.5877 22.1692C24.9618 22.5354 24.66 24.3709 23.3014 30.0122C22.3257 34.0628 21.6197 37.467 21.732 37.577C21.8458 37.6869 23.7398 37.1158 25.9443 36.3078C30.2384 34.7339 31.3998 34.6484 31.3998 35.906C31.3998 36.7348 31.4242 36.7267 24.1467 39.4714L20.6361 40.7968L19.1092 47.1138C18.2695 50.5882 17.4555 53.8235 17.2998 54.3031C16.917 55.4838 17.6314 55.643 22.4579 55.4517C25.0084 55.3505 27.2938 54.9956 28.9047 54.4505Z" fill="#0A9D33"/>
</svg>
