<svg width="42" height="58" viewBox="0 0 62 62" fill="none" xmlns="http://www.w3.org/2000/svg">
<path d="M29.9762 61.5607C29.858 61.2517 29.8122 57.7502 29.8749 53.7796C29.9859 46.8738 30.0243 46.5605 30.8171 46.5605C31.6159 46.5605 31.6456 46.836 31.6456 54.2019C31.6456 61.1559 31.5809 61.856 30.9195 61.983C30.5201 62.0597 30.0951 61.8696 29.9762 61.5607ZM9.16925 53.107C7.95581 52.6186 8.94508 51.1899 13.8217 46.3784C18.2102 42.0497 19.0874 41.3572 19.6219 41.7998C19.9682 42.0867 20.2514 42.5339 20.2514 42.7936C20.2514 43.2578 10.2814 53.412 9.88823 53.3482C9.77729 53.3314 9.4541 53.2218 9.16925 53.107ZM46.918 48.772C41.4079 43.36 41.0183 42.8176 41.9657 41.8724C42.5779 41.2617 43.0539 41.6268 47.8189 46.3643C52.8685 51.3843 53.7617 52.7847 52.2347 53.2867C51.9382 53.3841 49.5455 51.3526 46.918 48.772ZM26.1687 42.6131C23.5045 41.5605 20.7463 38.9501 19.4134 36.2199C18.6173 34.5886 18.4103 33.5141 18.4183 31.0594C18.4424 27.4253 19.3329 25.0495 21.6923 22.4439C27.5586 15.9654 38.3537 17.6416 42.3061 25.6446C43.7397 28.5477 43.6438 33.3493 42.0888 36.5082C39.9786 40.7954 36.3775 43.1002 31.4371 43.3255C29.0247 43.4354 27.8467 43.2762 26.1687 42.6131ZM34.959 40.3833C38.5912 38.8695 40.9718 35.1329 40.957 30.9698C40.9329 27.6542 39.9846 25.5224 37.5288 23.3657C34.3482 20.5722 30.3983 19.9653 26.6704 21.6973C19.1865 25.1745 18.5727 35.4115 25.5958 39.6137C26.8097 40.3399 28.2943 41.0164 28.8951 41.1168C30.4172 41.3713 33.4769 41.0013 34.959 40.3833ZM0.428387 31.9336C0.121108 31.7394 -0.0627618 31.2307 0.019726 30.8033C0.159617 30.077 0.656883 30.0261 7.61528 30.0261C14.5737 30.0261 15.071 30.0771 15.2114 30.8033C15.2934 31.2307 15.1103 31.7394 14.8028 31.9336C14.4957 32.1278 11.2611 32.2869 7.61528 32.2869C3.96966 32.2869 0.735666 32.1278 0.428387 31.9336ZM46.7707 31.6847C46.4895 31.3466 46.3677 30.7887 46.4999 30.4447C46.7025 29.9187 47.9203 29.8193 54.1667 29.8193C60.6427 29.8193 61.6256 29.9054 61.8512 30.4917C62.4558 32.0646 61.4651 32.2995 54.2238 32.2995C48.5854 32.2995 47.1861 32.184 46.7707 31.6847ZM13.4784 15.42C8.66859 10.6029 7.78905 9.15415 9.48487 8.83994C10.413 8.66788 20.3524 18.4494 20.1778 19.363C19.829 21.1879 18.3939 20.3431 13.4784 15.42ZM41.6148 19.6124C41.417 19.0948 42.6696 17.5882 46.4322 13.8253C51.4839 8.77269 52.9807 7.82391 52.9807 9.67465C52.9807 10.779 43.6401 20.3121 42.5581 20.3121C42.1872 20.3121 41.7629 19.9972 41.6148 19.6124ZM29.9644 14.8198C29.8511 14.5273 29.8099 11.1327 29.8726 7.27611C29.9859 0.358515 30.0001 0.262355 30.9184 0.132045L31.8505 0V7.67592C31.8505 15.1158 31.8264 15.3518 31.009 15.3518C30.5462 15.3518 30.0771 15.1123 29.9644 14.8198Z" fill="#FF9203"/>
</svg>
