<svg width="60" height="58" viewBox="0 0 55 77" fill="none" xmlns="http://www.w3.org/2000/svg">
<g clip-path="url(#clip0_13_240)">
<path d="M5.8422 74.8517C5.21945 74.5185 5.04903 73.5859 5.50863 73.0261C5.91536 72.5306 5.604 72.55 13.1314 72.55H20.0261V68.589V64.6279H11.9107H3.7954L3.52474 64.4425C2.87845 64 2.82921 63.3374 3.37671 62.4484C3.70863 61.9094 5.9122 58.3986 6.4474 57.556C6.78978 57.0171 9.29813 53.0273 10.3195 51.3971C10.7557 50.7009 11.8316 48.9919 12.7103 47.5994C16.1076 42.2159 16.7593 41.166 16.7593 41.0765C16.7593 41.048 15.334 41.0247 13.5921 41.0245C10.5723 41.0243 10.4128 41.0165 10.1653 40.862C9.75857 40.6078 9.57401 40.2416 9.60931 39.7589C9.63741 39.3823 9.82718 39.0523 12.0586 35.512C13.3893 33.4008 14.6776 31.3532 14.9215 30.9618C15.6241 29.8343 17.7563 26.448 18.3561 25.5073C18.6567 25.0356 18.9045 24.6038 18.9066 24.5476C18.9066 24.4682 18.3998 24.4456 16.6118 24.4456H14.3128L14.044 24.2598C13.8766 24.1441 13.7153 23.9263 13.6166 23.6821C13.4688 23.3165 13.4665 23.2671 13.5807 22.949C13.6483 22.7614 14.4331 21.4503 15.3253 20.0353C16.2173 18.6203 17.4188 16.7092 17.9953 15.7884C18.5717 14.8675 20.0395 12.5338 21.2569 10.6023C22.4744 8.67073 24.0115 6.23181 24.6728 5.18246C25.3341 4.1331 25.9649 3.21432 26.0744 3.14069C26.2005 3.05608 26.4414 3.00681 26.7296 3.00681C27.5022 3.00681 27.1766 2.57637 30.9304 8.56046C31.2122 9.00964 31.7565 9.87334 32.14 10.4797C34.4851 14.1874 39.5549 22.266 39.7422 22.5935C39.9296 22.9213 39.9589 23.0487 39.9264 23.3955C39.8948 23.7335 39.8352 23.8616 39.5967 24.1063L39.3056 24.4047L36.9166 24.4286C35.6026 24.4417 34.5275 24.4752 34.5275 24.5031C34.5275 24.531 34.638 24.7304 34.7731 24.9462C35.4757 26.0685 34.5359 27.3501 33.3911 26.8311C33.073 26.6868 32.9562 26.538 32.118 25.2098C31.585 24.3654 31.1721 23.6224 31.1408 23.4515C31.0662 23.0441 31.3228 22.4621 31.6736 22.2429C31.9227 22.0872 32.0698 22.0777 34.2287 22.0774C35.634 22.0772 36.5193 22.0469 36.5193 21.9989C36.5193 21.9559 36.2056 21.424 35.8223 20.817C35.4388 20.2099 34.9228 19.3906 34.6756 18.9963C34.4285 18.602 33.1969 16.6439 31.9388 14.645C30.6808 12.646 29.455 10.6982 29.2147 10.3164C27.2478 7.18954 26.8186 6.52547 26.749 6.50168C26.7051 6.48674 26.2618 7.12757 25.7635 7.9258C25.2652 8.72405 24.5313 9.8917 24.1327 10.5206C23.734 11.1494 23.0742 12.1969 22.6665 12.8482C22.2589 13.4995 21.393 14.8777 20.7425 15.9109C18.1417 20.041 16.9572 21.9349 16.9319 22.0043C16.917 22.0458 17.8914 22.0772 19.2029 22.0774C21.3547 22.0776 21.5167 22.088 21.7599 22.24C22.2782 22.5639 22.4856 23.2604 22.2203 23.7863C22.1099 24.0051 21.1715 25.5247 20.2363 26.9991C20.0017 27.3689 18.8843 29.1416 17.7533 30.9384C16.6223 32.7352 15.1071 35.1424 14.3862 36.2879C13.6651 37.4333 13.0583 38.4148 13.0377 38.4691C13.0087 38.5448 13.736 38.5732 16.1745 38.5916C19.6543 38.6178 19.6061 38.6111 19.9793 39.1249C20.1709 39.3887 20.2383 40.0359 20.1016 40.2983C19.9941 40.5045 18.1847 43.394 15.6828 47.3544C14.8599 48.657 14.065 49.925 13.9163 50.172C13.7676 50.4191 13.0408 51.5768 12.3011 52.7447C11.5613 53.9126 10.4849 55.6216 9.90902 56.5424C9.33316 57.4632 8.30831 59.0933 7.63164 60.1647C6.95489 61.2362 6.40131 62.1453 6.40131 62.185C6.40131 62.2265 11.1641 62.2579 17.5921 62.2588C24.0943 62.2597 28.8627 62.2915 28.9732 62.3345C29.6185 62.586 29.861 63.5959 29.4156 64.1764C29.0697 64.6271 29.0635 64.6278 25.6075 64.6278H22.4165V68.5889V72.5499H27.2768H32.137V67.198V61.846L31.7003 61.3184C31.2187 60.7364 30.8271 60.0077 30.6258 59.3192L30.4945 58.87L28.4274 58.8291L26.3605 58.7882L25.9222 58.5764C25.341 58.2954 24.8375 57.7644 24.5355 57.114L24.289 56.5831V49.966V43.3489L24.5498 42.8057C24.8967 42.0832 25.48 41.5361 26.166 41.2893C26.6374 41.1197 26.8175 41.1048 28.3764 41.1055C29.6721 41.1062 30.1242 41.1334 30.2885 41.2204C30.4069 41.2832 30.9321 41.8161 31.4555 42.4047C31.979 42.9933 32.4317 43.4748 32.4617 43.4748C32.4916 43.4748 32.7245 43.3462 32.9791 43.1891C35.4143 41.686 38.6499 42.5042 40.1269 44.9965C40.4507 45.5428 40.7811 46.4998 40.8605 47.1213L40.9141 47.5417L43.0327 49.2447C44.1978 50.1814 45.2836 51.0483 45.4454 51.1711L45.7396 51.3945L45.7845 50.9471C45.86 50.199 46.2911 49.7635 46.9566 49.7635C47.3688 49.7635 47.689 49.9317 47.9263 50.2728C48.0999 50.5223 48.1136 50.6283 48.1388 51.9227L48.1652 53.3061L48.5425 53.7401C49.4244 54.7543 49.719 56.0623 49.345 57.3034C49.1721 57.8771 48.7548 58.5771 48.3823 58.918L48.1512 59.1295V65.8397V72.5499H50.0782C51.8423 72.5499 52.033 72.5636 52.3343 72.7132C53.2059 73.1457 53.226 74.4087 52.3685 74.8569C52.1103 74.9919 50.8355 74.9998 29.1072 74.9999L6.11897 75L5.8422 74.8517ZM38.3655 72.4148C38.505 72.2855 38.511 71.9092 38.5061 63.6148L38.4973 54.9498L36.8636 53.6484C35.8759 52.8617 35.1799 52.248 35.1035 52.0967C34.5472 50.9939 35.7985 49.852 36.7999 50.5486C36.9685 50.6658 38.345 51.7573 39.8587 52.974C41.3725 54.1908 43.0708 55.5558 43.6326 56.0073C45.4208 57.4446 45.4797 57.4824 45.9176 57.4758C46.6142 57.4653 47.1129 56.9339 47.1129 56.2022C47.1129 55.7967 46.8985 55.4169 46.4942 55.1061C46.0924 54.7972 40.4874 50.2992 39.5639 49.5444C39.1587 49.2133 38.769 48.8515 38.698 48.7403C38.6172 48.6135 38.548 48.2567 38.513 47.7822C38.4186 46.5026 37.8867 45.6545 36.8518 45.1336C36.4458 44.9292 36.314 44.9049 35.6393 44.9101C35.0432 44.9146 34.8013 44.9535 34.5007 45.0924C33.9378 45.3526 33.3105 46.0004 33.0398 46.6012L32.8107 47.1094V52.8264V58.5434L33.0443 59.0334C33.1879 59.3347 33.4681 59.7122 33.7717 60.0135C34.0434 60.283 34.3057 60.5838 34.3548 60.6819C34.418 60.8085 34.4442 62.4868 34.4442 66.4655C34.4442 72.0832 34.4547 72.3091 34.715 72.4875C34.7633 72.5206 35.5709 72.5481 36.5096 72.5487C37.9871 72.5496 38.2359 72.5318 38.362 72.4148L38.3655 72.4148ZM45.7424 66.2481L45.7223 59.9461L45.2043 59.8378C44.4583 59.6819 44.0986 59.4621 42.5159 58.1952C41.7377 57.5722 41.0561 57.0352 41.0013 57.0019C40.9223 56.9534 40.9017 58.5241 40.9017 64.7456V72.55H43.3324H45.7631L45.7424 66.2481ZM30.3842 52.8672V49.2737H28.5117H26.6392V52.698V56.1222L26.8492 56.2915C27.0464 56.4505 27.1604 56.4608 28.7216 56.4608H30.3842V52.8672ZM30.6969 46.0925L30.9228 45.4023L30.1156 44.4877L29.3084 43.5732L28.1195 43.5651C27.1174 43.5579 26.9078 43.5781 26.7849 43.692C26.6539 43.8136 26.6392 43.9777 26.6392 45.3269V46.8266L28.5552 46.8047L30.4711 46.7829L30.6969 46.0925ZM34.8093 41.5925C32.3097 41.1924 30.3473 39.3628 29.7363 36.8627C29.4962 35.8801 29.5496 34.4117 29.8596 33.4703C30.1515 32.5833 30.6116 31.8133 31.2813 31.0905C31.9558 30.3627 32.7516 29.8372 33.7021 29.4918C34.3128 29.27 34.5429 29.2306 35.4105 29.1997C36.2457 29.17 36.5251 29.1925 37.0837 29.3362C39.271 29.8978 40.9736 31.6047 41.5507 33.8144C41.7685 34.6482 41.784 36.0922 41.5832 36.8594C41.1566 38.4913 40.2939 39.7389 38.9687 40.6404C37.8171 41.424 36.1463 41.8064 34.8093 41.5925ZM36.5563 39.1029C37.2352 38.9217 37.7709 38.6009 38.2915 38.0638C39.6569 36.6553 39.745 34.5254 38.5037 32.9421C38.2122 32.5702 37.3585 31.9569 36.9238 31.807C34.6824 31.0341 32.35 32.4698 31.9789 34.8506C31.5699 37.4753 34.044 39.7737 36.5563 39.1029Z" fill="#6FB530"/>
</g>
<defs>
<clipPath id="clip0_13_240">
<rect width="55" height="77" fill="white"/>
</clipPath>
</defs>
</svg>
