<svg width="37" height="37" viewBox="0 0 37 37" fill="none" xmlns="http://www.w3.org/2000/svg">
<mask id="mask0_155_50" style="mask-type:luminance" maskUnits="userSpaceOnUse" x="0" y="0" width="37" height="37">
<path d="M0 0H36.45V36.4H0V0Z" fill="white"/>
</mask>
<g mask="url(#mask0_155_50)">
<path d="M18.225 0C8.14043 0 0 8.12926 0 18.2C0 28.2707 8.14043 36.4 18.225 36.4C28.3096 36.4 36.45 28.2707 36.45 18.2C36.45 8.12926 28.3096 0 18.225 0ZM27.4184 27.2192C26.2441 28.3919 24.7052 28.9584 23.2066 28.9584C21.6677 28.9584 20.1287 28.3515 18.9945 27.2192L8.5456 16.8251C7.69482 16.0158 7.24966 14.924 7.24966 13.7509C7.24966 12.5783 7.69482 11.486 8.5456 10.6772C9.35552 9.82805 10.4489 9.38306 11.6235 9.38306C12.7982 9.38306 13.8916 9.82805 14.7015 10.6772L25.1099 21.0714C26.1628 22.1233 26.1628 23.862 25.1099 24.914C24.057 25.9655 22.3154 25.9655 21.2625 24.914L14.7015 18.4023C14.2559 17.9573 14.2559 17.2696 14.7015 16.8655C15.1471 16.4205 15.8357 16.4205 16.2404 16.8655L22.761 23.4175C23.0041 23.6194 23.3279 23.6194 23.5305 23.4175C23.7735 23.1748 23.7735 22.8509 23.5305 22.6491L13.1625 12.2141C12.3122 11.4053 10.8945 11.4053 10.0846 12.2141C9.67939 12.6591 9.43638 13.1848 9.43638 13.7509C9.43638 14.3579 9.67939 14.8836 10.0846 15.2878L20.493 25.6416C21.9916 27.1381 24.3809 27.1381 25.8794 25.6416C26.6084 24.914 26.9732 23.9836 26.9732 22.9725C26.9732 21.9614 26.568 20.9906 25.8794 20.303L15.4709 9.94917C15.0253 9.50462 15.0253 8.81694 15.4709 8.41232C15.9166 7.96777 16.6052 7.96777 17.0099 8.41232L27.3779 18.8065C28.5122 19.9392 29.1195 21.4356 29.1195 23.0129C29.1599 24.5901 28.5526 26.0866 27.4184 27.2192Z" fill="#FF9203"/>
</g>
</svg>
