<svg width="49" height="59" viewBox="0 0 49 59" fill="none" xmlns="http://www.w3.org/2000/svg">
<mask id="mask0_162_931" style="mask-type:luminance" maskUnits="userSpaceOnUse" x="0" y="0" width="49" height="59">
<path d="M0 0H48.9974V58.2346H0V0Z" fill="white"/>
</mask>
<g mask="url(#mask0_162_931)">
<path d="M40.6114 15.182C45.8157 12.4167 48.9972 7.07642 48.9972 0.909915C48.9972 0.405801 48.5893 0 48.0894 0H35.3862C30.4935 0 26.287 3.00167 24.5048 7.26677C23.9191 5.85902 23.0615 4.5684 21.955 3.45977C19.7314 1.22786 16.7674 0 13.6109 0H0.909777C0.407755 0 0.00195312 0.405801 0.00195312 0.909915C0.00195312 5.39046 1.66909 9.50496 4.70005 12.4941C6.14127 13.9207 7.82723 15.0377 9.69726 15.8116C11.4773 16.5772 13.4227 17.0374 15.4914 17.2068C14.6485 18.3908 13.9268 19.5663 13.2888 20.7544C10.6762 20.2127 8.65347 19.5475 7.21225 18.9681C7.51346 18.6083 7.82513 18.2548 8.14936 17.918C8.49659 17.554 8.48404 16.9788 8.12216 16.6316C7.76029 16.2843 7.18715 16.2948 6.83992 16.6588C6.19565 17.3302 5.58695 18.0456 5.03473 18.7798C1.7423 23.0637 0.00195312 28.2116 0.00195312 33.6669C0.00195312 39.2519 1.92219 44.7155 5.40915 49.0497C10.0821 54.8857 17.0393 58.2325 24.4986 58.2346H24.5006C31.9599 58.2325 38.9171 54.8857 43.588 49.0497C47.0749 44.7155 48.9972 39.2519 48.9972 33.6669C48.9972 28.2116 47.2569 23.0637 43.9687 18.7861C42.9813 17.4767 41.8539 16.2718 40.6114 15.182ZM42.6404 47.2759C41.3958 46.573 39.5216 45.7426 36.8358 45.0502C38.1703 41.8436 38.892 38.3294 38.9944 34.5768H47.1419C46.9578 39.164 45.3827 43.609 42.6404 47.2759ZM6.35881 47.2759C3.61651 43.6111 2.04142 39.164 1.85525 34.5768H10.0047C10.1052 38.3294 10.8289 41.8436 12.1634 45.0502C9.47762 45.7426 7.60132 46.573 6.35881 47.2759ZM6.06806 20.4658C7.5302 21.0828 9.65961 21.8296 12.4479 22.4383C10.9439 25.7077 10.1261 29.1675 10.0089 32.757H1.85316C2.02678 28.2869 3.468 24.072 6.06806 20.4658ZM18.148 23.3399C18.6082 23.3399 19.0014 22.9905 19.0495 22.5241C19.1018 22.0241 18.7399 21.5765 18.2421 21.5242C17.192 21.4154 16.1713 21.2648 15.1672 21.0975C15.8826 19.8299 16.7193 18.5706 17.6961 17.2884H21.7772V26.9398C19.3256 27.9313 17.6355 30.136 17.3134 32.757H11.8225C11.9459 29.2867 12.7742 25.9441 14.2887 22.7939C15.5082 23.0114 18.1166 23.3399 18.148 23.3399ZM38.7644 16.0103C39.8646 16.9035 40.8749 17.8929 41.7828 18.9702C40.3395 19.5496 38.3167 20.2148 35.702 20.7565C35.4866 20.3528 35.2753 19.9491 35.0389 19.5517C34.7816 19.1187 34.2252 18.9785 33.7943 19.2358C33.3634 19.4931 33.2233 20.0516 33.4806 20.4846C33.6019 20.6875 33.7044 20.8946 33.8194 21.0996C32.8196 21.2669 31.8009 21.4154 30.7571 21.5242C30.2572 21.5765 29.8953 22.0241 29.9476 22.5241C29.9957 22.9905 30.3889 23.3399 30.8491 23.3399C30.8805 23.3399 33.491 23.0114 34.7105 22.7939C36.225 25.942 37.0512 29.2846 37.1746 32.757H31.6837C31.3616 30.1339 29.6736 27.9313 27.2199 26.9398V17.2884H31.757C34.2796 17.2884 36.6287 16.8449 38.7644 16.0082V16.0103ZM25.4064 43.6969V40.8813C28.6842 40.4693 31.2821 37.8629 31.6942 34.5768H37.1788C37.0763 38.2039 36.3546 41.5842 35.0327 44.6486C32.1565 44.0629 28.9268 43.7429 25.4064 43.6969ZM13.9665 44.6486C12.6425 41.5842 11.9229 38.2039 11.8183 34.5768H17.3029C17.715 37.8629 20.315 40.4693 23.5907 40.8813V43.6969C20.0703 43.7429 16.8427 44.0629 13.9665 44.6486ZM24.4986 36.3966C25.2349 36.3966 25.9189 36.108 26.4125 35.5997C26.9334 35.0914 27.2199 34.4032 27.2199 33.6669V28.952C28.8808 29.908 29.9434 31.6671 29.9434 33.6669C29.9434 36.6769 27.5002 39.1264 24.4986 39.1264C21.4969 39.1264 19.0558 36.6769 19.0558 33.6669C19.0558 31.6671 20.1163 29.908 21.7772 28.952V33.6669C21.7772 35.1708 22.9988 36.3966 24.4986 36.3966ZM25.4064 17.2884V33.6669C25.4064 33.9095 25.3143 34.1333 25.1282 34.3132C24.965 34.4827 24.7412 34.5768 24.4986 34.5768C23.9986 34.5768 23.5907 34.1668 23.5907 33.6669V17.2884H25.4064ZM23.5907 45.5146V55.783C21.5596 54.5384 17.5455 51.5744 14.7781 46.345C17.4242 45.8388 20.3757 45.5606 23.5907 45.5146ZM25.4064 45.5146C28.6235 45.5606 31.5729 45.8388 34.219 46.345C31.4537 51.5744 27.4396 54.5384 25.4064 55.783V45.5146ZM38.9903 32.757C38.871 29.1675 38.0532 25.7056 36.5513 22.4383C39.3375 21.8296 41.469 21.0828 42.9311 20.4658C45.5291 24.0678 46.9724 28.2848 47.146 32.757H38.9903ZM35.3862 1.81983H47.1565C46.8365 7.35044 43.6172 12.0192 38.5866 14.1403C36.5366 15.0209 34.2399 15.4686 31.757 15.4686H26.195C29.1506 11.1846 32.8844 7.77925 37.3294 5.34654C37.7687 5.10599 37.9318 4.55376 37.6913 4.1124C37.4507 3.67313 36.9027 3.50997 36.4592 3.75052C32.1084 6.12886 28.4081 9.39409 25.4064 13.4521V11.8289C25.4064 6.30875 29.8827 1.81983 35.3862 1.81983ZM5.97393 11.1972C3.49728 8.75401 2.04979 5.45113 1.8427 1.81983H13.6109C16.2821 1.81983 18.7901 2.85944 20.6727 4.7462C22.5553 6.63297 23.5907 9.14936 23.5907 11.8289V13.4479C21.317 10.3751 18.6312 7.74579 15.5667 5.62056C15.1526 5.33399 14.5899 5.43858 14.3033 5.85065C14.0188 6.26482 14.1213 6.83169 14.5334 7.11826C17.7443 9.3418 20.5221 12.1468 22.8147 15.4686H17.2401C14.7593 15.4686 12.4605 15.0209 10.4001 14.1361C8.73714 13.4458 7.24781 12.4585 5.97393 11.1972ZM7.50928 48.7171C8.61582 48.1251 10.3896 47.3637 12.9395 46.7341C15.253 51.336 18.4283 54.346 20.815 56.1115C15.6797 55.2727 10.9962 52.6872 7.50928 48.7171ZM28.1842 56.1115C30.5688 54.346 33.7441 51.336 36.0576 46.732C38.6075 47.3637 40.3813 48.1251 41.4878 48.7171C38.003 52.6872 33.3195 55.2727 28.1842 56.1115Z" fill="white"/>
</g>
</svg>
