<svg width="52" height="65" viewBox="0 0 52 65" fill="none" xmlns="http://www.w3.org/2000/svg">
<mask id="mask0_162_936" style="mask-type:luminance" maskUnits="userSpaceOnUse" x="0" y="0" width="52" height="65">
<path d="M0 0H51.8087V64.2589H0V0Z" fill="white"/>
</mask>
<g mask="url(#mask0_162_936)">
<path d="M25.9044 64.2505C40.1932 64.2505 51.8087 52.6349 51.8087 38.3461C51.8087 37.7751 51.3422 37.3107 50.7733 37.3107H42.4836V29.0211H45.592C48.4514 29.0211 50.7733 26.6992 50.7733 23.8398C50.7733 21.725 49.5308 19.8926 47.644 19.0831C47.6545 18.9388 47.6649 18.7945 47.6649 18.6585C47.6649 15.2301 44.8766 12.4418 41.4482 12.4418C40.5571 12.4418 39.7079 12.6489 38.9088 13.0003C38.1328 10.8981 36.4113 9.24976 34.194 8.59713C34.194 8.49463 34.194 8.39004 34.194 8.29801C34.194 3.72751 30.4748 0.00836182 25.9044 0.00836182C21.3359 0.00836182 17.6147 3.72751 17.6147 8.29801C17.6147 8.4005 17.6147 8.49463 17.6147 8.59713C15.3974 9.24976 13.678 10.8981 12.902 13.0003C12.1029 12.6384 11.2537 12.4418 10.3626 12.4418C6.93209 12.4418 4.14587 15.2301 4.14587 18.6585C4.14587 18.8028 4.14587 18.9388 4.16679 19.0831C2.29048 19.8926 1.03751 21.725 1.03751 23.8398C1.03751 26.6992 3.35727 29.0211 6.21671 29.0211H9.32716V37.3107H1.03751C0.466463 37.3107 0 37.7751 0 38.3461C0 52.6349 11.6155 64.2505 25.9044 64.2505ZM25.9044 62.1776C24.6723 62.1776 23.4695 62.0834 22.2898 61.8973L26.444 54.4171C26.4859 54.3439 26.5674 54.3021 26.6406 54.3021H32.3093C33.4284 54.3021 34.3802 53.4947 34.558 52.3965L35.4281 47.1734C35.4491 47.0709 35.5515 46.9977 35.6666 47.0081L47.3742 48.6773C43.5191 56.6553 35.3445 62.1776 25.9044 62.1776ZM49.7169 39.3816C49.6019 41.9523 49.0852 44.4081 48.213 46.7069L35.9657 44.9561C34.7546 44.7804 33.5937 45.6192 33.3866 46.8324L32.5164 52.0534C32.4955 52.158 32.4118 52.2312 32.3093 52.2312H26.6406C25.8228 52.2312 25.0656 52.6768 24.6409 53.4005L20.1541 61.4726C17.5331 60.82 15.0774 59.7323 12.8811 58.2911L12.1343 53.8461C12.1238 53.775 12.1552 53.7017 12.218 53.6495L16.5061 50.4177C16.5897 50.3549 16.6839 50.2817 16.755 50.2106L17.9578 49.0078C18.4765 48.4891 18.715 47.7444 18.5895 47.0186C18.4661 46.2927 18.01 45.6715 17.3574 45.3493L15.0356 44.201C14.931 44.1487 14.8912 44.0232 14.9414 43.9207L17.2005 39.3816H49.7169ZM19.5747 22.7939C19.5747 22.7939 19.6563 22.7939 19.6981 22.7939H24.8794V37.3003H11.4085V29.0106H14.5168C17.3762 29.0106 19.6981 26.6888 19.6981 23.8293C19.6981 23.4779 19.6458 23.1244 19.5747 22.7834V22.7939ZM37.3128 29.0211H40.4212V37.3107H26.9523V22.8044H32.1315C32.1315 22.8044 32.2152 22.8044 32.257 22.8044C32.1838 23.1453 32.1315 23.4967 32.1315 23.8502C32.1315 26.7097 34.4534 29.0315 37.3128 29.0315V29.0211ZM39.3857 15.5501C39.3857 15.3953 39.3544 15.2489 39.3439 15.1046C39.9861 14.7218 40.7015 14.5147 41.4587 14.5147C43.7471 14.5147 45.6025 16.368 45.6025 18.6585C45.6025 18.9492 45.5606 19.2484 45.5 19.5705C45.4372 19.8403 45.4895 20.1206 45.6338 20.3591C45.7782 20.5955 46.0166 20.7523 46.2865 20.813C47.7172 21.1351 48.7213 22.3776 48.7213 23.8398C48.7213 25.5487 47.3219 26.9481 45.6129 26.9481H42.5046V25.4358L45.1464 23.6745L43.996 21.953L42.4941 22.9487V19.7044H40.4212V22.9487L38.9193 21.953L37.7688 23.6745L40.4107 25.4358V26.9481H37.3023C35.5934 26.9481 34.194 25.5487 34.194 23.8398C34.194 23.321 34.33 22.8232 34.5768 22.3672C37.3756 21.3631 39.3753 18.6899 39.3753 15.5501H39.3857ZM18.9116 10.4316C19.1793 10.3898 19.4283 10.2454 19.5956 10.0174C19.7609 9.79989 19.8236 9.51959 19.7818 9.2393C19.7295 8.88788 19.6981 8.56575 19.6981 8.28755C19.6981 4.85706 22.4864 2.07084 25.9148 2.07084C29.3453 2.07084 32.1315 4.85706 32.1315 8.28755C32.1315 8.57621 32.1022 8.88788 32.0499 9.2393C32.0081 9.50914 32.0709 9.78943 32.2361 10.0174C32.4014 10.235 32.6398 10.3898 32.9201 10.4316C35.4281 10.8144 37.3128 13.0107 37.3128 15.5501C37.3128 18.4096 34.993 20.7314 32.1315 20.7314H26.9523V18.2652L32.598 15.4476L31.6755 13.5922L26.9628 15.9538V8.30847H24.8898V15.9538L20.175 13.5922L19.2526 15.4476L24.9003 18.2652V20.7314H19.719C16.8596 20.7314 14.5377 18.4096 14.5377 15.5501C14.5377 13.0107 16.4245 10.8144 18.9325 10.4316H18.9116ZM6.22717 26.9481C4.5182 26.9481 3.11881 25.5487 3.11881 23.8398C3.11881 22.3776 4.12495 21.1247 5.55362 20.813C5.82346 20.7523 6.06192 20.585 6.20834 20.3591C6.35267 20.1311 6.40497 19.8403 6.34222 19.5705C6.269 19.2588 6.23763 18.9492 6.23763 18.6585C6.23763 16.368 8.09302 14.5147 10.3835 14.5147C11.1386 14.5147 11.854 14.7218 12.4962 15.1046C12.4962 15.2594 12.4564 15.4058 12.4564 15.5501C12.4564 18.6899 14.4562 21.3527 17.2528 22.3672C17.5018 22.8232 17.6356 23.321 17.6356 23.8398C17.6356 25.5487 16.2383 26.9481 14.5273 26.9481H11.4189V25.4358L14.0608 23.6745L12.9103 21.953L11.4085 22.9487V19.7044H9.33762V22.9487L7.83364 21.953L6.68317 23.6745L9.32716 25.4358V26.9481H6.21671H6.22717ZM14.9122 39.3816L13.1195 42.9878C12.5485 44.1068 12.994 45.4749 14.1236 46.0543L16.4559 47.2152C16.527 47.2466 16.5479 47.3198 16.5584 47.3595C16.5584 47.4014 16.5584 47.4746 16.5061 47.5478L15.274 48.7694L10.9943 51.9928C10.2998 52.499 9.95887 53.3399 10.1032 54.1891L10.486 56.4901C5.59546 52.3233 2.40552 46.2216 2.10431 39.3816H14.9122Z" fill="white"/>
</g>
</svg>
