<svg width="43" height="58" viewBox="0 0 43 58" fill="none" xmlns="http://www.w3.org/2000/svg">
<mask id="mask0_252_285" style="mask-type:luminance" maskUnits="userSpaceOnUse" x="0" y="0" width="43" height="58">
<path d="M0 0H43V57.5108H0V0Z" fill="white"/>
</mask>
<g mask="url(#mask0_252_285)">
<path d="M36.8269 23.1891C37.5231 21.9188 37.8864 20.4662 37.8864 18.9845C37.8864 14.5067 34.5277 10.7861 30.2004 10.2113C30.2607 9.7571 30.2912 9.33414 30.2912 8.87999C30.321 3.97925 26.3571 0.0166435 21.4854 0.0166435C16.6131 0.0166435 12.6491 3.97925 12.6491 8.85017C12.6491 9.30363 12.6796 9.7571 12.74 10.1807C8.41265 10.7556 5.05397 14.4769 5.05397 18.954C5.05397 20.4364 5.4166 21.8883 6.11274 23.1585C2.5724 24.3387 0 27.6966 0 31.5989C0 36.4088 3.90367 40.3721 8.74547 40.4325H8.86681H20.2443V56.2239C20.2443 56.9194 20.8198 57.4942 21.5153 57.4942C22.2114 57.4942 22.7862 56.9194 22.7862 56.2239V40.4325H34.1644C39.036 40.4325 43 36.4699 43 31.5989C42.9702 27.6966 40.3978 24.3387 36.8269 23.1891ZM34.1041 37.9218H22.7564V31.6593L29.7768 26.9707C30.3516 26.5775 30.5027 25.7906 30.1394 25.2158C29.7462 24.641 28.9593 24.4898 28.3845 24.8531L22.7564 28.6043V22.1608L27.2349 19.1654C27.8097 18.7723 27.9608 17.986 27.5975 17.4112C27.2043 16.8364 26.4174 16.6852 25.8426 17.0479L22.7564 19.1051V16.4128C22.7564 15.7173 22.1809 15.1425 21.4854 15.1425C20.7893 15.1425 20.2145 15.7173 20.2145 16.4128V22.3418L17.0978 20.4059C16.4925 20.0432 15.736 20.2242 15.3422 20.799C14.9796 21.4043 15.1605 22.1608 15.736 22.5539L20.184 25.3371V31.7501L14.6162 28.0295C14.0414 27.6363 13.2544 27.7875 12.8613 28.3921C12.4675 28.9669 12.6186 29.7539 13.2239 30.147L20.2145 34.8058V37.9218H8.77598C5.32646 37.8913 2.54189 35.0477 2.54189 31.5989C2.54189 28.302 5.11429 25.5486 8.38214 25.3066C8.86681 25.2768 9.29046 24.9738 9.47212 24.5203C9.65309 24.0662 9.56295 23.5524 9.22944 23.2196C8.17066 22.07 7.59586 20.557 7.59586 18.9845C7.59586 15.5051 10.4401 12.6616 13.9201 12.6616C14.0414 12.6616 14.1621 12.6616 14.2834 12.6616C14.7369 12.6921 15.1002 12.5105 15.3727 12.1471C15.6147 11.8143 15.7055 11.3609 15.5544 10.9677C15.3124 10.3021 15.191 9.57613 15.191 8.85017C15.191 5.37084 18.0352 2.52733 21.5153 2.52733C24.9953 2.52733 27.8402 5.37084 27.8402 8.85017C27.8402 9.57613 27.7188 10.3021 27.4768 10.9677C27.3257 11.3609 27.4165 11.8143 27.6585 12.1471C27.9005 12.48 28.3241 12.6616 28.7478 12.6616C28.8684 12.6616 28.9898 12.6616 29.1111 12.6616C32.5904 12.6616 35.4353 15.5051 35.4353 18.9845C35.4353 20.557 34.8605 22.0394 33.8011 23.2196C33.4683 23.5822 33.3774 24.0967 33.5591 24.5203C33.7407 24.9738 34.1644 25.2768 34.6484 25.3066C37.9169 25.5486 40.4886 28.3318 40.4886 31.5989C40.4283 35.0783 37.6139 37.9218 34.1041 37.9218Z" fill="#009492"/>
</g>
</svg>
