<svg width="60" height="58" viewBox="0 0 80 71" fill="none" xmlns="http://www.w3.org/2000/svg">
<path d="M63.6992 70.6881C63.376 70.6504 62.274 70.5244 61.2504 70.4079C56.5953 69.8783 51.1999 68.3393 47.3757 66.4501C39.3418 62.4814 34.6816 56.4967 34.1064 49.4103L33.9721 47.7651L32.3517 47.2373C25.224 44.9161 19.2941 39.7982 15.6615 32.8329C15.1781 31.9058 14.7539 31.1168 14.7187 31.0795C14.6835 31.0421 12.3978 32.9153 9.63892 35.2421C6.16855 38.169 4.47894 39.4727 4.15543 39.4727C2.94142 39.4727 0.450628 35.3836 0.0838249 32.7884C-0.155285 31.0971 0.13406 29.2851 0.736617 28.6812L1.11105 28.3069H11.9832H22.8549L23.2468 28.6987C23.7184 29.1703 23.726 29.2701 23.334 29.8304L23.029 30.2658H19.8079C18.0363 30.2658 16.5867 30.3121 16.5867 30.3687C16.5867 30.4252 16.888 31.0697 17.2563 31.8008C18.4841 34.2388 20.3338 36.7769 22.3549 38.7964C24.5955 41.0354 26.6707 42.557 29.2219 43.8314C30.952 44.6958 33.6219 45.7436 34.0816 45.7388C34.2125 45.7376 34.5002 44.9717 34.7357 43.9988C35.7943 39.6251 38.9658 34.8549 42.9416 31.6566L44.4075 30.4771L35.698 30.4206C28.8829 30.3763 26.933 30.3087 26.734 30.1098C26.3774 29.7538 26.2779 24.2843 26.5796 21.6468C26.8932 18.909 27.9048 14.939 28.8886 12.5842C30.4422 8.86606 32.3893 6.04153 35.3467 3.21614C37.8752 0.800363 39.3581 -0.222293 39.9521 0.0400572C40.3118 0.19896 41.8365 4.05636 48.7311 22.2523C54.4925 37.4575 57.1694 44.2907 57.3808 44.332C57.8354 44.4208 61.0553 43.1633 62.3408 42.395C65.8069 40.3235 68.0234 36.6491 68.4654 32.2413C68.8879 28.0294 67.8383 25.5483 65.0545 24.1782C63.692 23.5076 60.9679 23.4964 59.7228 24.1562C57.8343 25.1571 56.5803 26.8703 56.2542 28.8948C56.076 30.0024 55.8631 30.266 55.1471 30.266C54.4033 30.266 54.2146 29.7539 54.4366 28.3389C54.8938 25.4212 57.0961 22.9425 60.0379 22.0339C62.1338 21.3865 64.6287 21.6516 66.441 22.7142C67.6564 23.4269 69.0496 24.9558 69.6784 26.2669L70.25 27.4589L74.778 28.5996C77.2683 29.227 79.4304 29.8649 79.5829 30.0172C79.9338 30.3683 79.9378 30.9433 79.5997 31.2897C79.452 31.4372 77.3588 32.0712 74.9474 32.6986C72.536 33.326 70.4673 33.9159 70.35 34.0093C70.2325 34.1028 70.0265 34.6717 69.8918 35.2737C69.3698 37.6057 67.3129 40.9097 65.3284 42.6035C64.0104 43.7285 61.5145 45.0885 59.7105 45.6647C58.7353 45.9762 57.9353 46.2912 57.9326 46.3646C57.9326 46.4381 59.9182 51.7545 62.3506 58.1788L66.7731 69.8593L66.4597 70.3375C66.14 70.8253 65.5389 70.9019 63.7068 70.6883L63.6992 70.6881ZM64.1889 68.6609C64.1889 68.5533 62.3259 63.5508 60.0489 57.5441C52.5441 37.7464 50.0513 31.1548 49.8441 30.5597C49.6073 29.8793 49.3011 29.4768 49.3011 29.8456C49.3011 29.9809 48.8385 30.2979 48.2729 30.5502C44.3637 32.2938 40.2967 36.2943 38.0904 40.5658C36.6344 43.3852 36.138 45.3412 36.1056 48.3858C36.0821 50.5594 36.1457 51.1465 36.5376 52.3947C37.4833 55.4059 39.0847 57.8845 41.6067 60.2397C46.6547 64.954 54.0705 67.8062 63.9442 68.831C64.0784 68.8444 64.1889 68.7684 64.1889 68.6609ZM8.45992 33.7429L12.4678 30.3637L7.34217 30.3114C3.37244 30.271 2.18115 30.3148 2.059 30.5073C1.78566 30.938 1.88197 32.538 2.25297 33.7302C2.63353 34.9529 3.90984 37.1219 4.24862 37.1219C4.36105 37.1219 6.25541 35.6014 8.45992 33.7429ZM72.7322 31.3056C73.8514 31.0155 74.7669 30.7243 74.7669 30.6585C74.7669 30.5927 73.9075 30.3328 72.8571 30.0809C71.8067 29.829 70.8371 29.5818 70.7023 29.5316C70.5231 29.4648 70.4575 29.7615 70.4575 30.6366C70.4575 31.2946 70.5111 31.8329 70.5782 31.8329C70.6436 31.8329 71.613 31.5956 72.7322 31.3056ZM47.2186 23.6545C46.2075 20.9879 43.9925 15.1275 42.2965 10.6313C40.6005 6.13508 39.1488 2.4768 39.0703 2.5018C38.9914 2.5268 38.2656 3.11148 37.456 3.80119C33.2173 7.41237 30.2006 12.8021 28.948 19.0021C28.4483 21.4751 28.0626 26.0501 28.2364 27.4413L28.3689 28.5028H38.7128H49.0569L47.2186 23.6545ZM16.9114 56.7447C16.4877 56.2765 16.5025 56.0124 16.9786 55.5358C17.3325 55.1819 17.6317 55.144 20.0695 55.144C23.0015 55.144 23.6388 55.3314 23.6388 56.1934C23.6388 57.0228 23.3361 57.103 20.202 57.103C17.5766 57.103 17.1983 57.0619 16.9114 56.7447ZM27.2774 56.7952C26.5774 56.0952 27.2456 55.1441 28.4388 55.1441C29.5879 55.1441 30.3424 56.1984 29.6729 56.868C29.3252 57.2156 27.6467 57.1646 27.2774 56.7952ZM62.0812 30.7899C60.6093 29.9724 60.6036 27.8355 62.0644 26.9408C62.8794 26.4439 63.5195 26.4402 64.3194 26.9274C65.6876 27.7616 65.8807 29.4235 64.7338 30.4949C64.0745 31.1109 62.8896 31.2421 62.0745 30.7894L62.0812 30.7899ZM63.5138 29.0735C63.7157 28.7468 63.2617 28.3723 62.9915 28.6425C62.7653 28.8686 62.9076 29.2864 63.2094 29.2864C63.3051 29.2864 63.4413 29.1906 63.5138 29.0735ZM5.3375 21.7306C4.59852 20.9917 5.26697 20.0796 6.54927 20.0796C7.01809 20.0796 7.48035 20.2076 7.66006 20.3874C8.08576 20.813 8.04752 21.5903 7.5896 21.8357C7.01439 22.1435 5.68853 22.0817 5.3375 21.7306ZM11.6225 21.6801C11.201 21.2145 11.2119 20.8059 11.6561 20.4037C11.9684 20.1211 12.6124 20.0795 16.6644 20.0795C19.4951 20.0795 21.4624 20.1588 21.6929 20.2822C22.1225 20.5121 22.2093 21.4308 21.8373 21.8033C21.667 21.9734 20.2682 22.0384 16.7744 22.0384C12.346 22.0384 11.92 22.0087 11.6225 21.6801ZM19.6377 15.8538C18.9376 15.1538 19.6057 14.2027 20.7989 14.2027C21.9479 14.2027 22.7028 15.257 22.0332 15.9266C21.6857 16.2742 20.007 16.2232 19.6377 15.8538Z" fill="#CCB801"/>
</svg>
