<svg width="250" height="90" viewBox="0 0 196 64" fill="none" xmlns="http://www.w3.org/2000/svg">
<g clip-path="url(#clip0_3_150)">
<path d="M32.1375 0.000774518C24.1625 0.0512853 16.1644 2.69213 10.0905 8.00782C4.01656 13.3235 -0.0260981 21.3745 0.000126837 31.6513C0.000126837 31.655 0.000126837 31.6587 0.000126837 31.6624C0.000126837 31.6624 0.0432169 37.2548 0.127088 42.7247C0.200972 43.9338 1.17006 44.8923 2.37413 44.948L0.168318 43.0339C0.116355 42.6807 0.152087 42.8907 0.155334 42.9415C0.155334 42.9923 0.163408 43.076 0.169904 43.1805C0.182894 43.3896 0.203233 43.6889 0.23165 44.0635C0.289296 44.8127 0.330952 45.8694 0.53929 47.1203C1.90534 55.323 5.05787 61.7903 9.96988 63.9919C10.0064 64.0083 10.0502 63.995 10.0904 63.995H51.9636C64.4792 61.9207 65.328 49.2153 64.9137 42.6657C64.9137 42.6631 64.9055 42.6604 64.9055 42.6578C64.9055 42.6503 64.9055 42.6429 64.9137 42.6354C64.7847 36.7866 64.3714 31.46 64.3714 31.46L64.3796 31.6449C64.3796 21.1909 60.3264 13.0888 54.2306 7.79105C48.1347 2.49331 40.1172 -0.0497573 32.1423 0.000737164L32.1375 0.000774518Z" fill="white"/>
<path d="M2.35999 31.4849C2.35999 31.4849 2.40214 37.0709 2.48625 42.5283H62.5518C62.4245 36.7599 62.0151 31.4849 62.0151 31.4849C62.0232 -7.92137 2.26118 -7.16526 2.35999 31.4849Z" fill="#274955"/>
<path d="M3.56118 22.4811C3.41967 22.9773 3.29023 23.4827 3.17267 23.997H17.8093V22.4811H3.56118Z" fill="white"/>
<path d="M52.1226 46.9699L51.5684 47.5307C49.3209 46.6869 47.2957 47.3497 46.2814 49.4848L45.9784 50.122L45.4427 50.025C44.4285 49.8409 43.4535 50.1515 42.7586 50.8797C42.0339 51.6392 41.794 52.6495 42.2925 52.8418C42.3817 52.8762 46.8358 52.901 52.1906 52.8975L61.328 52.8911C61.8115 51.2182 62.1628 49.4439 62.3605 47.5648C62.3093 47.5369 62.2672 47.4697 62.1985 47.4775C60.4573 47.6771 58.8947 47.0921 57.2819 46.456C56.0434 45.9941 54.1505 45.8257 52.1226 46.9699Z" fill="#274955"/>
<path d="M13.2571 44.748C12.0176 44.748 11.0303 45.1735 10.1329 46.0949C9.81978 46.4164 9.53127 46.744 9.49189 46.8227C9.42288 46.9612 9.40791 46.9618 9.04629 46.8455C8.17405 46.5651 7.48018 46.6209 6.45246 47.0546L5.84253 47.3123L5.43756 47.1466C4.82351 46.8951 3.91512 46.9098 3.37536 47.1799C3.27907 47.2281 3.17251 47.2957 3.07248 47.3671C3.2494 49.1686 3.55668 50.877 3.98707 52.4872C5.00984 52.5032 8.53305 52.5117 12.7671 52.5053C28.6726 52.4821 27.1609 52.4972 27.2934 52.359C27.4746 52.17 27.3858 51.6764 27.0441 50.9738C26.6866 50.2384 26.0844 49.6105 25.4192 49.2794C24.8364 48.9894 24.4763 48.9095 23.7442 48.9071L23.1371 48.9054L23.0213 48.5415C22.858 48.0287 22.307 47.1789 21.8763 46.7755C21.153 46.0981 20.4624 45.8229 19.4864 45.8229C18.5535 45.8229 17.9699 46.0346 17.2527 46.6334L16.9438 46.891L16.8385 46.7122C16.78 46.6139 16.4897 46.2827 16.1928 45.9764C15.3595 45.1168 14.4777 44.748 13.2571 44.748Z" fill="#274955"/>
<path d="M50.7188 43.9167C49.7631 43.9689 49.4035 45.6623 51.6084 45.3913C51.8195 45.3653 52.0561 45.3251 52.3168 45.2448C57.4826 43.6528 57.8002 46.6312 62.4643 45.8805C62.5896 45.3418 62.5466 44.3184 62.5484 43.764C60.5937 43.7069 51.0205 43.9002 50.7188 43.9167Z" fill="#274955"/>
<path d="M2.89951 43.9641C2.89951 44.512 2.91894 45.0503 2.94411 45.5826L4.43107 45.5817C6.05124 45.581 6.47741 45.5596 6.79446 45.4616C7.05493 45.3811 7.4825 45.339 8.10273 45.3317C8.97221 45.3219 9.03591 45.311 9.23061 45.1402C9.34403 45.0407 9.633 44.8272 9.87324 44.6659C10.1135 44.5045 10.3106 44.3324 10.3109 44.2834C10.3109 44.0242 10.0682 44.0062 6.24906 43.9836L2.89951 43.9641Z" fill="#274955"/>
<path d="M33.3381 18.2513C33.7171 19.3061 33.8521 20.4363 33.7355 21.5776C33.6188 22.7188 33.2528 23.8487 32.6584 24.9027C32.064 25.9568 31.2527 26.9143 30.271 27.7206C29.2892 28.5269 28.1562 29.1663 26.9367 29.6021C24.4736 30.4824 21.8074 30.4805 19.5247 29.5967C17.2419 28.7129 15.5295 27.0197 14.7642 24.8896C13.999 22.7595 14.2435 20.3669 15.444 18.2382C16.6445 16.1095 18.7027 14.4191 21.1657 13.5388C22.3853 13.1029 23.6675 12.879 24.9393 12.88C26.211 12.8809 27.4474 13.1066 28.5777 13.5442C29.708 13.9818 30.7102 14.6227 31.527 15.4304C32.3438 16.238 32.9592 17.1966 33.3381 18.2513Z" fill="white"/>
<path d="M14.4528 19.4549C14.4528 19.4549 13.2179 17.8471 10.8043 17.9882C10.692 18.101 13.2179 20.7524 14.4528 19.4549Z" fill="white"/>
<path d="M16.6714 16.1225C16.6714 16.1225 16.1397 14.163 13.8548 13.3686C13.7082 13.4298 15.0376 16.8489 16.6714 16.1225Z" fill="white"/>
<path d="M20.2608 13.4744C20.2608 13.4744 20.2167 11.4438 18.1912 10.1171C18.0342 10.1409 18.5006 13.7817 20.2608 13.4744Z" fill="white"/>
<path d="M24.7393 12.2822C24.7393 12.2822 25.4466 10.3796 24.0538 8.3934C23.8993 8.35701 22.9911 11.9126 24.7393 12.2822Z" fill="white"/>
<path d="M48.777 6.35344C47.4608 6.32064 46.1422 6.75801 45.0206 7.99547C43.524 8.23405 41.9453 9.04845 41.98 11.557C41.9881 11.8528 42.218 14.1976 44.882 14.1824C44.8593 14.1819 44.882 14.1816 44.9283 14.1824C45.4082 14.1906 45.7867 14.5945 45.7654 15.0764C45.7524 15.3664 45.7402 15.5158 45.7654 15.6549C45.7654 15.6565 45.7654 15.6582 45.7654 15.6598C45.7654 15.6672 45.7735 15.6861 45.7776 15.7142C45.7782 15.7167 45.7784 15.72 45.7776 15.7224C45.8806 16.1303 46.0793 16.4377 46.2505 16.6598C46.3097 16.7372 46.2813 16.7011 46.2935 16.7172C46.3056 16.7332 46.3219 16.7571 46.3454 16.7855C46.3925 16.8423 46.4638 16.9208 46.5564 17.0039C46.7405 17.1691 47.0017 17.3439 47.3255 17.4264V17.4281L47.3336 17.4297C47.315 17.4256 47.3337 17.4291 47.3791 17.4381C47.3872 17.4386 47.388 17.4389 47.3921 17.4397C47.557 17.473 47.4887 17.4691 47.5742 17.4714C47.5823 17.4713 47.575 17.4698 47.5839 17.4698C47.5985 17.4694 47.6124 17.4694 47.627 17.4698C47.6449 17.4706 47.6684 17.4714 47.7 17.473C47.7561 17.4747 47.8103 17.4771 47.8821 17.4795C48.0327 17.4828 48.235 17.4853 48.4707 17.4889C48.9441 17.4962 49.5616 17.5045 50.1754 17.5112C50.3769 17.5137 50.4108 17.5128 50.5812 17.5145C51.189 17.521 51.5949 18.1468 51.3554 18.7083C51.1916 19.0905 51.0915 19.2083 51.0331 19.4142V19.4158V19.4174C50.9183 19.825 51.0112 20.3312 51.2635 20.6698C51.5155 21.0084 51.9729 21.2428 52.3938 21.2471C52.3938 21.2471 54.6619 21.2707 56.9419 21.2821C58.0819 21.2878 59.2262 21.2894 60.0958 21.2854C60.4189 21.2837 60.6574 21.2797 60.8951 21.2757C58.6799 14.4752 54.2483 9.50927 48.7737 6.354C49.188 5.87526 49.809 6.89293 48.7656 6.35358L48.777 6.35344Z" fill="white"/>
<path d="M32.5916 19.6643L29.5168 20.2269L27.7946 20.5408L27.8898 22.2812L27.8865 22.1776C27.8865 22.4962 27.8869 22.361 27.8947 22.235L27.8914 22.2876V22.3386C27.8915 22.3187 27.8914 22.3712 27.8661 22.4597V22.4629L27.8645 22.4661C27.8423 22.5444 27.7705 22.731 27.6393 22.9618C27.4971 23.2107 27.2673 23.5588 26.9891 23.9818C26.8897 24.1328 26.7739 24.3098 26.6688 24.4695C26.5954 24.3745 26.5328 24.2767 26.507 24.2272C26.5068 24.2268 26.5054 24.226 26.5054 24.2256C26.4933 24.2007 26.4788 24.1659 26.4546 24.1092L26.453 24.106C26.4522 24.1038 26.4524 24.1036 26.4514 24.1012L26.4498 24.0949L26.4449 24.0805C26.423 24.0085 26.4259 24.012 26.4259 24.012L26.0659 22.474L22.8706 22.6127L22.6581 24.1953C22.6581 24.1953 22.6574 24.202 22.6532 24.2303L22.65 24.2526L22.6467 24.275C22.6564 24.1936 22.6352 24.358 22.6229 24.5156C22.6122 24.6525 22.6087 24.772 22.6087 24.8885V24.9045V24.922C22.6119 25.0934 22.6251 25.2619 22.6467 25.4352L22.65 25.4543L22.6516 25.4751C22.6714 25.6107 22.7041 25.7989 22.7579 26.0137C22.8209 26.2771 22.8953 26.4768 22.9529 26.6305L22.9545 26.6401L22.9578 26.6481C23.0404 26.8627 23.1319 27.0555 23.2226 27.2346V27.2362C23.351 27.4892 23.4743 27.676 23.5683 27.8195L23.5764 27.8307L23.5845 27.8435C23.8439 28.2269 24.1187 28.5384 24.3695 28.7981C24.4431 28.8745 24.4988 28.9205 24.5693 28.9894C24.5677 29.0471 24.5588 29.0834 24.5598 29.144C24.5614 29.2537 24.5671 29.3585 24.5663 29.3384C24.5663 29.3389 24.5663 29.348 24.5663 29.348V29.3528L24.5696 29.3958V29.4101H24.5712C24.5736 29.4477 24.5752 29.4831 24.5761 29.493C24.5825 29.5625 24.5826 29.5517 24.5842 29.5632C24.5858 29.5746 24.5874 29.5836 24.589 29.5934C24.5897 29.5983 24.5893 29.6031 24.5907 29.6126C24.591 29.6148 24.5931 29.6218 24.5939 29.6253L24.5955 29.6349C24.5959 29.6372 24.595 29.6365 24.5955 29.6397C24.5957 29.6406 24.5972 29.6443 24.5972 29.6461L24.6053 29.7082L22.3392 30.6342L22.4153 30.9689C22.1428 30.5694 21.836 30.1172 21.6589 29.858L21.6556 29.8532L21.6507 29.8484C21.3593 29.4275 21.194 29.1886 21.194 29.1886L20.2109 27.767L17.1376 29.4962L18.1573 31.8263L18.1589 31.8311C18.3622 32.2881 18.6606 32.97 19.0311 33.7834C19.2113 34.1821 19.4067 34.6148 19.6131 35.0712V35.0728C19.8258 35.5412 20.1009 36.1435 20.5186 36.7861L20.5218 36.7925L20.5267 36.7988C20.7321 37.1094 20.9979 37.4711 21.3513 37.8284L21.3594 37.838L21.4799 37.9559L21.5766 38.0468L21.6131 38.0818L21.6196 38.0866L22.4331 37.1383L22.4759 37.1702L21.6878 38.1472C21.6878 38.1472 22.129 37.6033 22.4791 37.1718L22.5076 37.1909C22.1456 37.6235 21.6971 38.1574 21.702 38.1615C21.7168 38.1739 21.7181 38.1736 21.721 38.1759C21.7324 38.1852 21.7328 38.187 21.7368 38.1902C21.7393 38.1921 21.7409 38.1933 21.7433 38.195L22.4093 37.4205L21.7988 38.2381L21.8496 38.2795C21.9842 38.3928 22.0984 38.4732 22.1873 38.5345C22.1906 38.5365 22.1956 38.5406 22.1984 38.5425C22.2873 38.6057 22.3846 38.6679 22.4886 38.7306C23.3189 39.2458 24.1556 39.5036 24.8625 39.6741C25.5939 39.8531 26.2395 39.9396 26.6973 40.0263H26.7038L26.7086 40.0279C27.1508 40.1089 27.5024 40.2063 27.7299 40.2941C27.1573 43.8659 27.4107 45.7829 27.6903 46.9321C28.0052 48.2265 28.273 49.2871 27.1971 54.6587L26.7404 56.9425H38.8969L39.0777 55.2356C39.7869 48.4871 39.2462 45.2017 38.575 43.1581C38.2394 42.1363 37.9346 41.5018 37.8265 41.1101C37.7184 40.7184 37.6776 40.4908 37.8551 39.6885C37.8344 39.7819 37.8995 39.6103 38.0708 39.4191C38.0938 39.3964 38.1169 39.374 38.1184 39.3729L38.1265 39.3665L38.1281 39.3649L38.1534 39.3506C38.1629 39.3451 38.2698 39.294 38.4452 39.2422L38.4485 39.2406H38.4517C38.6329 39.1864 38.9141 39.1208 39.2605 39.035L39.2637 39.0333H39.2686C39.42 38.9952 39.6245 38.9441 39.8616 38.8676L39.8759 38.8628C40.0347 38.8137 40.2357 38.7513 40.4643 38.6619L40.4691 38.6603C41.27 38.3591 42.0183 37.965 42.6987 37.5001L42.7004 37.4984L42.702 37.4968C43.386 37.0271 43.9927 36.4906 44.5177 35.9174C45.0515 35.3335 45.4883 34.7151 45.8434 34.0941C46.2033 33.4643 46.4557 32.8564 46.6458 32.3314C46.829 31.8357 46.968 31.4138 47.0787 31.1249L47.0803 31.1201L47.082 31.1138C47.1971 30.8086 47.307 30.5667 47.388 30.4125L47.3975 30.3934L47.407 30.3758C47.4176 30.3547 47.4632 30.2756 47.5148 30.1846C47.548 30.1333 47.5828 30.0811 47.5846 30.0778C47.658 29.9769 47.7051 29.9089 47.7051 29.9089L48.7517 28.4761L46.0052 26.1317L44.7667 27.3891C44.7667 27.3891 44.7465 27.4093 44.7445 27.4114L42.4229 25.4687L41.3525 26.4297C41.3582 26.4214 41.3672 26.4141 41.3732 26.4058L41.3764 26.401C41.5766 26.1234 41.7536 25.8443 41.9092 25.5642L41.9108 25.5594C42.0746 25.2695 42.1995 25.0057 42.2962 24.7944L42.2994 24.7881L42.3027 24.7817C42.4088 24.5449 42.5 24.3189 42.577 24.1059L42.5786 24.0996L42.5819 24.0916C42.6388 23.9298 42.6914 23.777 42.7405 23.6166L42.7486 23.5879C42.7959 23.4375 42.8331 23.304 42.839 23.2835L42.8406 23.2787L42.8422 23.2739C42.861 23.2075 42.8723 23.1687 42.8723 23.1687L43.3401 21.4873L40.0893 20.2537L39.317 21.7742C39.317 21.7742 39.3011 21.8057 39.2711 21.865C39.2252 21.9545 39.2035 21.9993 39.1728 22.0547L39.1633 22.0722L39.1538 22.0897C39.1238 22.1465 39.0605 22.258 38.9793 22.3957C38.8963 22.5305 38.8179 22.6558 38.7399 22.7703C38.6358 22.9205 38.5396 23.0517 38.4481 23.1623L38.4449 23.1672L38.4416 23.172C38.3128 23.3296 38.195 23.4642 38.0864 23.572L38.0769 23.5816L38.0674 23.5911C37.9495 23.7112 37.822 23.8261 37.69 23.9274L37.6693 23.9418L37.6504 23.9577C37.6439 23.9627 37.5629 24.0208 37.4839 24.0772L37.3189 24.1856C37.3173 24.1863 37.2907 24.2013 37.2555 24.2223C37.0653 24.3305 36.8547 24.441 36.6276 24.5554L36.6227 24.5585L36.6162 24.5617C36.4545 24.6444 36.2619 24.7508 36.0754 24.8518C36.0187 24.7543 35.9235 24.6113 35.8804 24.5282L35.8771 24.5219L35.8755 24.5155C35.7184 24.2177 35.6098 23.9558 35.5504 23.7617C35.5503 23.7613 35.5505 23.7604 35.5504 23.76C35.4987 23.5849 35.4856 23.4451 35.4854 23.411V23.3536L35.4838 23.3807C35.4981 23.1811 35.5166 23.1687 35.4679 23.4317L35.4728 23.4078L35.4761 23.3839C35.5074 23.1868 35.5348 23.0953 35.4744 23.3233L35.4793 23.3042L35.4826 23.2947L35.4809 23.2771C35.4866 23.3474 35.4842 23.2743 35.4842 23.2867C35.5172 23.1511 35.5349 23.0779 35.5349 23.0779L35.9234 21.4841L32.6615 20.1374L32.0288 21.5081L32.5916 19.6643ZM21.7972 38.238C21.7932 38.2351 21.7872 38.2304 21.7782 38.2236L21.7799 38.2253C21.7831 38.2276 21.788 38.2316 21.788 38.2316L21.7972 38.238ZM21.7782 38.2236C21.775 38.2213 21.775 38.2212 21.7717 38.2188L21.7734 38.2204L21.7782 38.2236ZM31.7765 22.023L31.7814 22.0565C31.7806 22.059 31.7809 22.0588 31.7798 22.0613C31.779 22.0537 31.7782 22.0591 31.7765 22.0518C31.7757 22.0444 31.7782 22.0303 31.7765 22.023ZM31.683 22.125L31.6878 22.2063L31.683 22.3067C31.6805 22.2585 31.683 22.0698 31.683 22.1776V22.125ZM31.6624 22.3657C31.6599 22.3726 31.6632 22.367 31.6607 22.3737C31.6603 22.3754 31.65 22.3997 31.6496 22.4008L31.6624 22.3657ZM31.4832 23.0781C31.4807 23.0912 31.4856 23.1064 31.4832 23.1195C31.475 23.1697 31.4723 23.1473 31.4657 23.212L31.4832 23.0781ZM31.6861 23.4351C31.6862 23.444 31.691 23.4533 31.691 23.4622C31.6918 23.519 31.6853 23.4898 31.691 23.569L31.6861 23.4351ZM31.5165 23.5116L31.5149 23.518C31.5154 23.5162 31.5143 23.515 31.5149 23.5132C31.515 23.5125 31.5165 23.5123 31.5165 23.5116ZM31.7131 23.6056C31.7147 23.6371 31.7269 23.6698 31.7289 23.7013L31.6877 23.7076C31.6942 23.6739 31.707 23.6394 31.7131 23.6056ZM35.2446 23.6088C35.2397 23.6382 35.2265 23.7147 35.2463 23.6248L35.2367 23.663L35.2416 23.6152L35.2432 23.612L35.2446 23.6088ZM31.4736 23.612C31.4712 23.6563 31.472 23.7028 31.4704 23.7475L31.4101 23.7586C31.4269 23.7094 31.4585 23.6617 31.4736 23.612ZM31.4578 24.6304C31.522 25.1928 31.6582 25.7207 31.8305 26.2417C31.8312 26.2439 31.8313 26.2459 31.8321 26.2481C31.8325 26.2491 31.8337 26.2502 31.8337 26.2513C32.0166 26.8114 32.2366 27.3166 32.43 27.7765C32.6144 28.2268 32.7671 28.6283 32.8439 28.9463V28.9511L32.8455 28.9559C32.9172 29.2472 32.8999 29.4736 32.8978 29.4883C32.8975 29.4892 32.8982 29.489 32.8978 29.4899C32.8954 29.4959 32.8976 29.4916 32.8946 29.4995L32.8865 29.5202L32.8849 29.5218C32.8843 29.5229 32.875 29.5393 32.8659 29.5553C32.8221 29.6265 32.7005 29.7931 32.5233 30.0191V30.0207L32.5217 30.0223C32.4327 30.1363 32.3269 30.2723 32.2141 30.4255C32.2124 30.4278 32.2124 30.4281 32.2108 30.4304C32.2067 30.4358 32.2035 30.4392 32.1997 30.4447C32.1103 30.5652 32.0539 30.6521 32.0157 30.7093C31.6345 30.3261 31.2249 29.9568 30.9961 29.8008L30.9896 29.796L30.9831 29.7912C30.68 29.5883 30.5043 29.474 30.3456 29.3497L30.344 29.3481L30.3407 29.3465C30.1742 29.2169 30.0145 29.0749 29.8634 28.9241L29.8585 28.9193C29.8569 28.9177 29.8553 28.9161 29.8537 28.9145C29.7631 28.8219 29.7231 28.7697 29.6539 28.6914C29.6921 28.5965 29.7139 28.5307 29.7791 28.3917V28.3901L29.7808 28.3869C29.9067 28.1171 30.0305 27.8546 30.1503 27.598L30.1519 27.5932L30.1535 27.59C30.3913 27.0749 30.615 26.588 30.8227 26.1381L30.8243 26.1365V26.1348C31.0201 25.7089 31.2394 25.2632 31.4285 24.7451L31.4301 24.7403C31.4439 24.7029 31.4447 24.6676 31.4578 24.6304ZM40.0289 26.9302L39.9908 26.9605C39.9965 26.956 40.0009 26.9506 40.0067 26.9462C40.0175 26.9376 40.0178 26.9393 40.0289 26.9302ZM40.3064 27.6203C40.2908 27.6455 40.2956 27.6319 40.2779 27.6618L40.2713 27.6713L40.2665 27.6809C40.228 27.7477 40.1762 27.8369 40.119 27.9439L40.0873 28.0028L40.0603 28.0634C40.0247 28.1429 39.9886 28.2232 39.9525 28.304L39.935 28.3439L39.9192 28.3853C39.8475 28.5676 39.8157 28.6801 39.7987 28.7296L39.7875 28.7599L39.778 28.7917C39.7409 28.9126 39.733 28.9599 39.7162 29.0308L38.7441 28.7981C38.8279 28.7416 38.8824 28.7021 38.982 28.6356L38.9852 28.6339L38.9885 28.6307C39.2095 28.4817 39.4947 28.295 39.8099 28.0458L39.8164 28.041L39.8229 28.0362C39.8664 28.0012 39.9457 27.9406 40.0512 27.8497L40.0593 27.8434L40.2465 27.6776L40.2687 27.6569C40.2782 27.648 40.2964 27.6297 40.3064 27.6203ZM29.5914 29.0435C29.593 29.0742 29.593 29.2285 29.593 29.2284C29.593 29.2284 29.5865 29.2284 29.5865 29.2284C29.5889 29.1396 29.5914 29.0756 29.5914 29.0435ZM28.1372 29.2284C28.2176 29.2391 28.2596 29.245 28.3624 29.2587C28.3624 29.2586 28.3575 29.4484 28.3575 29.4484C28.3575 29.4484 28.3551 29.4672 28.3543 29.4739C28.2111 29.4021 28.153 29.3726 28.053 29.3225L28.1117 29.2316L28.1372 29.2284ZM28.3989 29.2635C28.7898 29.3155 28.9851 29.3416 29.2361 29.375C29.3358 29.39 29.5739 29.426 29.5739 29.426L29.5628 29.4882L29.3947 29.995C29.3947 29.995 28.9845 29.7891 28.5749 29.5838C28.5421 29.53 28.4959 29.477 28.4638 29.4181C28.432 29.3565 28.4156 29.3091 28.3989 29.2635ZM27.2983 29.4165L27.4395 29.493C27.4051 29.5396 27.3833 29.5681 27.3411 29.6253C27.2206 29.581 27.2107 29.5767 27.1001 29.536C27.1921 29.4799 27.2248 29.4614 27.2983 29.4165ZM32.9294 29.434C32.8537 29.5771 32.8523 29.578 32.9183 29.4611L32.9118 29.4739L32.9199 29.4531L32.9294 29.434ZM25.8362 29.5328C25.8379 29.5431 25.8395 29.5546 25.8457 29.5822C25.8465 29.5857 25.8531 29.6058 25.8553 29.6141L25.8838 29.7257C25.7799 29.8012 25.7722 29.8048 25.6618 29.8851L25.5191 29.6492C25.6772 29.5913 25.6915 29.5858 25.8362 29.5328ZM32.7978 29.7639C32.7977 29.7642 32.7962 29.7698 32.7962 29.7703C32.7961 29.7705 32.7962 29.7732 32.7962 29.7735C32.7962 29.7735 32.7945 29.7735 32.7945 29.7735C32.797 29.7651 32.7946 29.7757 32.7962 29.7703C32.7978 29.7656 32.7953 29.7699 32.7962 29.7671C32.7965 29.766 32.7978 29.7647 32.7978 29.7639ZM39.5595 30.7632C39.5599 30.7684 39.562 30.7848 39.5628 30.7903C39.5644 30.8092 39.5622 30.807 39.5644 30.827L39.5595 30.7632ZM33.2878 31.8868L33.6731 32.1657L33.2593 31.9506C33.2713 31.9221 33.282 31.8991 33.2878 31.8868ZM33.2022 32.0828C33.1965 32.0962 33.1949 32.1078 33.1895 32.1211C33.1897 32.1202 33.1927 32.1067 33.1927 32.1067C33.1927 32.1068 33.2008 32.0867 33.2022 32.0828ZM31.0328 32.29L31.0487 32.3155C31.0454 32.3093 31.0414 32.3106 31.0375 32.3044C31.0343 32.2996 31.0361 32.2949 31.0328 32.29ZM39.845 33.9428L39.8275 33.9619C39.8307 33.9586 39.8324 33.954 39.8356 33.9507C39.8389 33.9471 39.842 33.9464 39.845 33.9428ZM32.1556 36.9024L32.0319 37.6004L32.5155 37.3407C32.5204 37.5858 32.497 37.8809 32.509 38.1089C32.5131 38.194 32.518 38.2752 32.5233 38.3527L32.9769 44.9541L34.2946 42.4869C34.5151 43.1605 34.7601 43.7184 34.9686 44.3532C35.4055 45.6834 35.7235 48.2589 35.365 53.1269H31.2071C31.7388 49.4549 31.6725 47.2405 31.3768 46.0251C31.015 44.5379 30.7004 44.1798 31.5719 39.9082L31.5735 39.8987L32.2633 40.2445L31.9445 36.9103L32.1556 36.9024ZM22.4427 37.1255C22.4566 37.1385 22.4756 37.156 22.4791 37.159C22.4718 37.1527 22.4623 37.1448 22.4427 37.1271C22.4423 37.1267 22.4431 37.1259 22.4427 37.1255ZM30.0592 37.2116L30.0813 37.2259C30.0773 37.2232 30.0726 37.2222 30.0687 37.2196C30.0646 37.2169 30.063 37.2143 30.0592 37.2116ZM22.568 37.2339C22.3165 37.5665 22.0887 37.8659 22.0003 37.9829C22.1308 37.8052 22.2372 37.6622 22.4617 37.3566L22.568 37.2339ZM23.3926 37.6722C23.3966 37.6739 23.401 37.6736 23.4052 37.6753C23.4168 37.6799 23.4252 37.6852 23.437 37.6897L23.3926 37.6722ZM29.8546 39.0332L29.8863 39.0508C29.8456 39.0749 29.7951 39.1051 29.7658 39.1225C29.8094 39.0787 29.812 39.076 29.8546 39.0332Z" fill="white"/>
<path d="M29.8563 22.1036L29.7818 22.1172L29.785 22.1769C29.785 22.2163 29.7936 22.2737 29.7891 22.3496C29.7883 22.5001 29.767 22.7214 29.6902 22.989C29.6142 23.257 29.481 23.5689 29.2878 23.9085C29.0942 24.2479 28.8461 24.6184 28.5725 25.0343C28.3003 25.4478 28.0054 25.8958 27.6935 26.3695C27.5386 26.6071 27.3795 26.8511 27.2168 27.1006C27.2004 27.126 27.1837 27.1527 27.1672 27.1785C27.1041 27.1443 27.0368 27.1075 26.9641 27.0665C26.7859 26.9655 26.5821 26.8453 26.3737 26.707C26.2695 26.6377 26.1655 26.5627 26.0608 26.4849C25.9563 26.4074 25.8554 26.3231 25.7527 26.2391C25.647 26.1475 25.5586 26.0656 25.4631 25.973C25.3713 25.8803 25.2835 25.785 25.2046 25.6874C25.0477 25.4917 24.9172 25.2915 24.822 25.1078C24.7754 25.0157 24.7377 24.9281 24.7043 24.8491C24.6736 24.7696 24.6477 24.6987 24.6305 24.6389C24.5942 24.5197 24.5775 24.4485 24.5775 24.4485L24.5396 24.4501C24.5396 24.4501 24.5372 24.4682 24.5323 24.5022C24.5283 24.5364 24.5186 24.587 24.5157 24.6517C24.5101 24.7168 24.5076 24.7958 24.5076 24.888C24.5093 24.9798 24.5168 25.0836 24.531 25.1972C24.5475 25.3099 24.5682 25.4333 24.6012 25.5614C24.6315 25.6909 24.6781 25.8227 24.7292 25.9591C24.7815 26.0948 24.8446 26.2319 24.9142 26.3693C24.983 26.5048 25.0726 26.6464 25.1538 26.7704C25.3287 27.029 25.5327 27.2643 25.7324 27.4711C25.9322 27.6783 26.1277 27.8581 26.2965 28.0068C26.4151 28.1106 26.5184 28.1991 26.605 28.2714C26.5812 28.3403 26.5576 28.4093 26.5385 28.4829C26.514 28.5792 26.4929 28.6788 26.4789 28.7825C26.4652 28.8873 26.4556 28.9871 26.4582 29.1189C26.4582 29.1912 26.4615 29.2212 26.4631 29.2624L26.4647 29.2922L26.4656 29.3073C26.4623 29.2877 26.4696 29.3409 26.4696 29.3409L26.4712 29.3513L26.4823 29.4347C26.4997 29.5448 26.5242 29.6527 26.555 29.7564C26.6171 29.9635 26.7015 30.1534 26.7938 30.3279C26.9841 30.6782 27.183 30.9589 27.4037 31.2445C27.6245 31.5278 27.8647 31.799 28.1217 32.0548C28.3721 32.3091 28.6745 32.5613 28.9113 32.7549C29.1499 32.9527 29.3213 33.1255 29.406 33.2724C29.4941 33.4199 29.5669 33.6187 29.6221 33.8674C29.6502 33.9901 29.6746 34.1263 29.6976 34.2678C29.7208 34.4179 29.7438 34.5669 29.7667 34.7148C29.887 35.5184 29.9776 36.2867 30.0454 36.9968C30.0422 36.9952 30.0389 36.9935 30.0352 36.9919C29.7347 36.8409 29.4236 36.7265 29.1134 36.6398C28.4918 36.466 27.8715 36.3871 27.2723 36.3453C27.0219 36.3295 26.7807 36.3169 26.544 36.3041C26.5569 36.1798 26.5803 36.0247 26.5855 35.8283C26.5872 35.7276 26.5831 35.6158 26.5632 35.4958C26.5435 35.3729 26.5055 35.2551 26.4653 35.159C26.4248 35.0608 26.3825 34.979 26.345 34.9056C26.3065 34.8306 26.2674 34.7546 26.2281 34.6781C26.1476 34.5256 26.0687 34.3696 25.9838 34.2161C25.8184 33.9071 25.6437 33.602 25.4829 33.3147C25.3231 33.027 25.1679 32.7609 25.0353 32.5327C24.9042 32.3039 24.7895 32.1154 24.7109 31.9828C24.6308 31.8508 24.5851 31.7754 24.5851 31.7754L24.55 31.7898C24.55 31.7898 24.5696 31.8759 24.604 32.0267C24.6398 32.1767 24.6887 32.3921 24.7537 32.6479C24.8173 32.9044 24.891 33.2037 24.9765 33.5218C25.0608 33.8404 25.1478 34.1814 25.244 34.5187C25.2899 34.6882 25.3419 34.8552 25.3901 35.0209C25.4152 35.1034 25.4401 35.1851 25.4646 35.2659C25.49 35.3485 25.5113 35.4202 25.5225 35.4771C25.5345 35.5357 25.5359 35.5749 25.5325 35.6087C25.5292 35.6451 25.5225 35.688 25.512 35.7366C25.4909 35.8349 25.4537 35.9542 25.4161 36.0851C25.4029 36.1301 25.3903 36.1732 25.3779 36.2155C24.9202 36.1593 24.493 36.0628 24.1119 35.906C24.0562 35.8847 24.0031 35.8603 23.9516 35.8337C23.8987 35.8087 23.8463 35.7832 23.7975 35.753L23.7223 35.7101L23.7034 35.6994L23.6985 35.697C23.6944 35.6945 23.7184 35.713 23.705 35.7035L23.694 35.6962L23.6502 35.6663L23.5649 35.6078L23.5019 35.5623C23.3204 35.4305 23.1398 35.2568 22.9755 35.0755C22.6424 34.7088 22.3599 34.2784 22.0785 33.8648C21.7974 33.4484 21.5317 33.0546 21.2865 32.691C20.7981 31.9627 20.3813 31.3616 20.0924 30.939C19.8008 30.518 19.6343 30.2774 19.6343 30.2774L19.5682 30.3146L19.8911 31.0525C20.0992 31.5204 20.3923 32.1916 20.756 32.99C20.9367 33.3899 21.1325 33.823 21.3396 34.2812C21.5481 34.7402 21.7785 35.2377 22.1063 35.7421C22.2731 35.9942 22.4572 36.2425 22.6958 36.4837L22.791 36.5775L22.8703 36.6519L22.9091 36.6882L22.9187 36.6973C22.9095 36.69 22.9363 36.7115 22.9363 36.7115L22.9428 36.7164L22.9671 36.7363L23.0655 36.816C23.1306 36.8707 23.199 36.9198 23.2686 36.9677C23.3374 37.0175 23.4079 37.0645 23.4804 37.1071C24.0567 37.4656 24.696 37.6727 25.3039 37.8193C25.9118 37.9686 26.5138 38.0494 27.0477 38.1505C27.5822 38.2484 28.0746 38.3702 28.4882 38.538C28.6953 38.6207 28.8801 38.7156 29.0378 38.8198C29.1933 38.9195 29.3413 39.0493 29.4113 39.1244C29.4537 39.1704 29.4959 39.2161 29.5378 39.2615L29.5534 39.2786L29.5615 39.2871C29.5899 39.3159 29.5275 39.2525 29.5346 39.26L29.5362 39.2633L29.5531 39.2872L29.5872 39.3341C29.6361 39.3924 29.6703 39.4642 29.7122 39.5256C27.9012 48.4028 31.2632 44.0198 29.0569 55.0345H37.1872C38.5723 41.8545 35.0886 43.3911 35.9994 39.2739C36.0971 38.8324 36.3853 38.4332 36.6899 38.106C36.767 38.026 36.8474 37.9497 36.9328 37.8813C36.9877 37.8347 37.1169 37.7443 37.2043 37.6975C37.399 37.5848 37.6365 37.4913 37.9078 37.4112C38.1789 37.3302 38.4809 37.2619 38.8039 37.1818C38.973 37.1392 39.1303 37.1008 39.3007 37.0443C39.4684 36.9924 39.6355 36.9401 39.7979 36.8749C40.4526 36.629 41.0696 36.3037 41.6289 35.9215C42.1876 35.5379 42.687 35.0963 43.1179 34.6258C43.5499 34.1533 43.9036 33.6536 44.1952 33.1437C44.4821 32.6415 44.6921 32.1394 44.8586 31.6795C45.0288 31.2204 45.1648 30.8012 45.304 30.4382C45.4411 30.0747 45.5777 29.7665 45.7068 29.5209C45.7689 29.3964 45.8344 29.2917 45.8872 29.197C45.9455 29.1074 45.993 29.0296 46.0359 28.9677C46.1247 28.8455 46.1723 28.7803 46.1723 28.7803L46.1146 28.731C46.1146 28.731 46.0581 28.7885 45.9522 28.8962C45.9003 28.9514 45.8388 29.0244 45.7646 29.1086C45.6967 29.1962 45.6134 29.2943 45.5328 29.4128C45.3657 29.646 45.1817 29.9432 44.9917 30.2927C44.8008 30.6417 44.6017 31.0422 44.3827 31.467C44.165 31.8925 43.9103 32.3321 43.591 32.7553C43.5023 32.8734 43.4065 32.9909 43.3069 33.1075C43.3012 33.037 43.2922 32.9653 43.2797 32.8911C43.2576 32.7897 43.2322 32.6843 43.1931 32.5791C43.1201 32.3666 43.0071 32.1776 42.9078 32.0052C42.8589 31.9255 42.8092 31.8445 42.759 31.7624C42.7132 31.6819 42.667 31.6003 42.6204 31.518C42.5864 31.4408 42.5459 31.3734 42.5099 31.2888C42.4749 31.2048 42.4347 31.122 42.4074 31.0341L42.3598 30.9043L42.321 30.7717C42.2934 30.6834 42.2738 30.5937 42.2519 30.5045C42.2117 30.3255 42.1826 30.1462 42.1634 29.9696C42.1569 29.8817 42.1503 29.7942 42.1462 29.7081C42.1478 29.623 42.1462 29.5378 42.1486 29.4554C42.1559 29.3739 42.1588 29.2926 42.1684 29.2152C42.1797 29.1374 42.1906 29.0622 42.2011 28.9901C42.218 28.9196 42.2323 28.8505 42.2463 28.784C42.2612 28.718 42.2835 28.6582 42.3002 28.5995C42.3164 28.5404 42.3363 28.4871 42.3576 28.4389C42.3769 28.389 42.3947 28.3431 42.4107 28.3017C42.4464 28.2203 42.4812 28.1593 42.5011 28.1145C42.5222 28.0703 42.5335 28.0468 42.5335 28.0468L42.4641 27.9887C42.4641 27.9887 42.4443 28.0065 42.407 28.0399C42.37 28.0739 42.3143 28.1234 42.2479 28.1916C42.1876 28.2636 42.1019 28.3465 42.0298 28.4591C41.9926 28.5146 41.9481 28.5723 41.9096 28.6375C41.8718 28.703 41.8318 28.7727 41.792 28.847C41.7576 28.9239 41.722 29.0039 41.6849 29.0868C41.6516 29.1714 41.6243 29.2612 41.5924 29.3538C41.5638 29.4468 41.5428 29.5443 41.5181 29.6446C41.499 29.745 41.4826 29.8489 41.466 29.9551C41.4587 30.0613 41.446 30.1705 41.4434 30.281C41.4434 30.3911 41.4393 30.5044 41.4517 30.6165C41.4603 30.7293 41.4687 30.8438 41.4919 30.9563L41.5223 31.1265L41.5632 31.2949C41.589 31.408 41.6289 31.5169 41.6648 31.6269C41.6993 31.7366 41.7552 31.8518 41.8024 31.9618C41.8265 32.0137 41.8492 32.0542 41.8726 32.1006L41.9076 32.1677L41.9255 32.2008L41.9538 32.2502C42.0098 32.3454 42.067 32.4297 42.1189 32.5093C42.227 32.665 42.31 32.7989 42.3692 32.9183C42.4278 33.0376 42.4689 33.1615 42.4944 33.2807C42.5195 33.3999 42.5324 33.5139 42.5338 33.6162C42.5363 33.7186 42.5289 33.8087 42.5208 33.8838C42.5192 33.8926 42.5184 33.8994 42.5176 33.9072C42.5003 33.9224 42.484 33.9386 42.4664 33.9538C42.037 34.3263 41.5545 34.6621 41.0342 34.9373C40.5132 35.2111 39.9563 35.4254 39.3879 35.5665C39.2468 35.6056 39.103 35.6321 38.9602 35.6589C38.8216 35.6877 38.6645 35.7107 38.5205 35.7313C38.217 35.7749 37.8915 35.8132 37.5482 35.8778C37.2056 35.9422 36.841 36.0352 36.4786 36.194C36.2863 36.2802 36.1534 36.3533 35.9561 36.479C35.7915 36.5868 35.6387 36.7059 35.4951 36.8308C35.0253 37.2495 34.6791 37.7324 34.418 38.2214C34.4131 38.1504 34.4087 38.0799 34.405 38.0067C34.3656 37.2705 34.3622 36.4225 34.4246 35.5151C34.5256 35.4125 34.643 35.3098 34.7701 35.2031C34.9282 35.0754 35.106 34.9469 35.2985 34.819C35.4921 34.692 35.7014 34.5666 35.9186 34.4396C36.1398 34.3115 36.3645 34.1815 36.5892 34.0514C36.704 33.9831 36.8188 33.9147 36.9331 33.8467C37.0429 33.7793 37.1524 33.7088 37.2668 33.632C37.4893 33.4811 37.701 33.3285 37.8978 33.1649C38.0933 33.0004 38.279 32.8378 38.4368 32.6626C38.5963 32.4901 38.7361 32.3169 38.8491 32.1458C38.8773 32.1031 38.9049 32.0615 38.9317 32.0207C38.956 31.978 38.9797 31.9365 39.0029 31.8959C39.0514 31.817 39.0856 31.7347 39.1205 31.66C39.1574 31.5864 39.1799 31.5115 39.2053 31.4455C39.2318 31.3797 39.248 31.3163 39.263 31.2595C39.297 31.1474 39.3106 31.0564 39.3213 30.9951C39.332 30.9342 39.3378 30.9016 39.3378 30.9016L39.301 30.8928C39.301 30.8928 39.2888 30.923 39.2658 30.9797C39.2431 31.0361 39.2122 31.1193 39.1576 31.2183C39.1323 31.2683 39.105 31.3237 39.0671 31.3799C39.0301 31.4364 38.996 31.4998 38.9473 31.5604C38.9007 31.6223 38.8539 31.6888 38.796 31.7531C38.7682 31.7858 38.7397 31.8191 38.7106 31.8535C38.6791 31.8857 38.6468 31.9187 38.6138 31.9523C38.4829 32.0866 38.327 32.2184 38.1543 32.3456C37.983 32.4743 37.7904 32.5955 37.5876 32.7126C37.3849 32.8295 37.1639 32.9366 36.9405 33.0375C36.8252 33.0872 36.709 33.1371 36.5923 33.1874C36.4747 33.235 36.3567 33.2826 36.2387 33.3303C35.759 33.5213 35.2671 33.721 34.8069 33.9504C34.7334 33.9875 34.6626 34.0265 34.591 34.0648C34.6238 33.8814 34.6602 33.7001 34.7058 33.5242C34.7709 33.2794 34.8483 33.0412 34.9487 32.8194L34.9863 32.736C34.9758 32.7539 34.9855 32.7377 34.9838 32.7393L34.9871 32.7328L34.9936 32.7201L35.0064 32.695L35.0319 32.6448L35.1199 32.4785C35.1845 32.3597 35.2571 32.2353 35.3341 32.1046C35.4878 31.8425 35.6604 31.5524 35.8063 31.2189C35.8424 31.1347 35.8768 31.049 35.9081 30.96C35.9243 30.9164 35.938 30.8696 35.9522 30.8245L35.9627 30.7905L35.9783 30.7402L35.9816 30.7265L35.9933 30.6717L36.0169 30.562C36.025 30.5239 36.0325 30.4958 36.0409 30.4377C36.0569 30.3352 36.0721 30.2316 36.0833 30.1314C36.1051 29.8547 36.0915 29.5852 36.055 29.3288H36.1444C36.1444 29.3288 36.1428 29.2936 36.1395 29.2278C36.1395 29.2142 36.1371 29.1865 36.1379 29.1792C36.1379 29.1704 36.1387 29.1609 36.1387 29.1506C36.1387 29.1394 36.1371 29.1312 36.1387 29.1147C36.1403 29.0971 36.142 29.0783 36.1444 29.0587C36.1543 28.9794 36.17 28.8799 36.2123 28.763C36.253 28.6463 36.3158 28.5122 36.407 28.3698C36.4975 28.2274 36.6164 28.0771 36.7618 27.9311C36.7978 27.8942 36.8351 27.8575 36.8748 27.822L36.9042 27.7947L36.9115 27.7882C36.9172 27.7833 36.905 27.7931 36.9074 27.7914L36.9098 27.7898L36.9147 27.7857L36.9327 27.7705L37.0047 27.7094C37.0479 27.6743 37.0917 27.6388 37.1359 27.6029C37.1829 27.5665 37.2304 27.5296 37.2806 27.4932C37.4783 27.3464 37.7001 27.2012 37.9306 27.0472C38.1608 26.8919 38.4033 26.7313 38.6372 26.5464C38.6976 26.4979 38.7497 26.4577 38.8159 26.4007L38.9738 26.2619C39.0835 26.159 39.1983 26.0513 39.2943 25.9443C39.495 25.7315 39.6751 25.509 39.834 25.2851C39.9948 25.0625 40.1357 24.8393 40.2562 24.6214C40.3787 24.4048 40.4792 24.1929 40.5687 23.9975C40.6567 23.801 40.7302 23.6188 40.7893 23.4553C40.847 23.2911 40.8957 23.1483 40.9315 23.0292C40.9695 22.9111 40.9944 22.8167 41.0127 22.753C41.0307 22.6893 41.0402 22.6552 41.0402 22.6552L41.0047 22.6417C41.0047 22.6417 40.9888 22.6731 40.9589 22.732C40.9287 22.7907 40.8867 22.8775 40.8269 22.985C40.7697 23.0934 40.6952 23.2225 40.609 23.3688C40.5197 23.5137 40.4201 23.6766 40.3031 23.8482C40.1851 24.0189 40.0552 24.2014 39.9052 24.3829C39.7565 24.565 39.5959 24.7523 39.4161 24.9306C39.239 25.1111 39.0452 25.2845 38.838 25.4434C38.7345 25.5272 38.632 25.5936 38.5274 25.6694L38.3516 25.7844C38.307 25.8129 38.2425 25.8504 38.1883 25.8823C37.959 26.0128 37.7197 26.1383 37.4743 26.2619C37.2295 26.387 36.9816 26.514 36.7396 26.6544C36.6792 26.6889 36.6192 26.7255 36.5598 26.7619C36.5012 26.7979 36.4349 26.8416 36.3794 26.8782L36.3011 26.931L36.2816 26.9441L36.2551 26.9634L36.2123 26.9949C36.155 27.0359 36.0998 27.0789 36.0463 27.1227C35.8395 27.2898 35.6577 27.4716 35.503 27.6603C35.3218 27.2916 35.1253 26.9552 34.9305 26.6418C34.6503 26.1968 34.3965 25.7995 34.1944 25.4099C33.9905 25.0232 33.8354 24.6557 33.7327 24.3193C33.6313 23.9829 33.586 23.6769 33.5844 23.4234C33.5796 23.3595 33.5861 23.3 33.5877 23.2432C33.5918 23.1869 33.5893 23.1325 33.5983 23.0837C33.6138 22.9861 33.6197 22.8996 33.6373 22.833C33.6703 22.6978 33.6878 22.6257 33.6878 22.6257L33.6177 22.5967C33.6177 22.5967 33.5855 22.6666 33.5253 22.7977C33.4938 22.8634 33.4706 22.9496 33.4345 23.0498C33.4154 23.0997 33.4073 23.1561 33.3921 23.2152C33.3791 23.2747 33.361 23.3381 33.3541 23.4062C33.307 23.6774 33.2961 24.0166 33.3401 24.3994C33.3825 24.7826 33.4874 25.2048 33.6345 25.6489C33.779 26.093 33.9801 26.562 34.1782 27.033C34.3716 27.5042 34.567 27.9954 34.6881 28.4975C34.8111 28.9975 34.8491 29.5057 34.7453 29.9416C34.7307 29.9871 34.7166 30.0292 34.7051 30.0728C34.7026 30.0885 34.6855 30.1309 34.6731 30.1642L34.6337 30.2692L34.614 30.3216L34.6091 30.3347C34.6059 30.3446 34.6279 30.2743 34.6175 30.3061L34.6151 30.311L34.6059 30.3292C34.593 30.3536 34.5834 30.3781 34.5694 30.4028C34.5438 30.452 34.5152 30.502 34.4851 30.5523C34.3616 30.7543 34.199 30.9654 34.015 31.2C33.923 31.3177 33.8264 31.4419 33.7285 31.5755C33.6819 31.6375 33.6256 31.7225 33.5791 31.7917L33.5114 31.8956L33.4423 32.0101C33.2588 32.316 33.1133 32.6338 32.9893 32.9499C32.7473 33.5841 32.6054 34.2096 32.4918 34.7895C32.3679 35.4204 32.2785 36.0337 32.215 36.6161C32.0784 35.8972 31.9134 35.1253 31.7151 34.3243C31.6761 34.1694 31.6368 34.0133 31.5972 33.8562C31.554 33.6908 31.5067 33.5191 31.4461 33.3365C31.3263 32.9758 31.1558 32.5674 30.8584 32.1917C30.5581 31.8146 30.2145 31.5732 29.9309 31.3799C29.6407 31.1856 29.4179 31.0417 29.1799 30.8553C28.9465 30.6737 28.7235 30.4764 28.5136 30.2659C28.3069 30.0558 28.0949 29.8258 27.9464 29.6233C27.8716 29.5204 27.8101 29.4205 27.7645 29.3247C27.7417 29.2768 27.7236 29.23 27.7081 29.1836L27.6978 29.149L27.6962 29.1449C27.6946 29.1384 27.7019 29.1883 27.6978 29.1636L27.6954 29.1489L27.6897 29.1195C27.6824 29.0815 27.6734 29.0326 27.6735 29.0252C27.667 28.9984 27.6619 28.9392 27.6612 28.8866C27.6604 28.833 27.6636 28.7768 27.6697 28.7192C27.6821 28.6037 27.7092 28.481 27.7473 28.3553C27.8231 28.1033 27.9383 27.8428 28.0627 27.5777C28.1886 27.3078 28.3118 27.0438 28.4317 26.7869C28.6696 26.2716 28.8945 25.7843 29.1022 25.3346C29.3077 24.8873 29.508 24.4703 29.65 24.08C29.7938 23.6911 29.8817 23.3341 29.9154 23.0356C29.9514 22.737 29.9313 22.4997 29.9047 22.3434C29.8958 22.2645 29.8768 22.2058 29.8694 22.1658C29.8603 22.1261 29.8556 22.1057 29.8556 22.1057L29.8563 22.1036Z" fill="#274955"/>
<path d="M34.5057 13.9761C32.0669 13.981 29.8503 15.186 28.4115 17.0967C27.5228 16.8107 26.6086 16.6112 25.6697 16.6106C25.6692 16.6106 25.6687 16.6106 25.6681 16.6106C20.7017 16.6107 16.6357 20.676 16.6356 25.6568C16.6355 25.66 16.6355 25.6632 16.6356 25.6664C16.6396 26.2606 16.8285 26.8273 16.948 27.4068C15.1525 28.6704 14.0032 30.7 14.0032 32.9499C14.0033 36.7094 17.0791 39.784 20.8252 39.7839C20.8263 39.7839 20.8273 39.7839 20.8284 39.7839C22.3319 39.7813 23.8072 39.3306 25.0243 38.4802C26.2415 37.6298 27.2248 36.3009 27.4014 34.6584C27.4157 34.5254 27.4101 34.542 27.4141 34.4974C27.4023 34.5258 27.4581 34.4969 27.9549 34.4225C30.188 34.0881 32.2355 32.7519 33.1943 30.6517C33.9547 32.6776 35.7982 34.1335 37.9833 34.4352C38.2868 34.4772 38.2941 34.5262 38.2116 34.4592C38.1292 34.3921 38.1182 34.2964 38.1767 34.5102C38.991 37.4853 41.9258 39.1167 44.8021 39.1241C44.8032 39.1241 44.8043 39.1241 44.8053 39.1241C48.7071 39.124 51.9111 35.9233 51.9112 32.0079C51.9104 29.5299 50.572 27.3126 48.5129 26.0282C48.2523 22.1092 45.2684 19.0326 41.4324 18.5168C40.1844 15.8108 37.5385 13.9766 34.5089 13.9761C34.5078 13.9761 34.5067 13.9761 34.5057 13.9761ZM34.5089 17.1047H34.5122C36.5341 17.1064 38.3019 18.4127 38.9016 20.3368C39.0008 20.6548 39.1984 20.9326 39.4657 21.1299C39.733 21.3271 40.0559 21.4334 40.3874 21.4333C43.2321 21.4341 45.4958 23.7045 45.5032 26.5382C45.4991 26.6154 45.495 26.6935 45.4873 26.7708C45.4547 27.1001 45.5268 27.4313 45.6932 27.7168C45.8596 28.0023 46.1117 28.2274 46.4134 28.3598C47.8685 28.999 48.7963 30.4246 48.7968 32.0079C48.7968 34.2233 47.0344 35.9929 44.8102 35.9955C44.8097 35.9955 44.8094 35.9955 44.8086 35.9955C43.1167 35.9906 41.538 34.9922 41.1787 33.6798C41.0231 33.1111 40.7167 32.4708 40.1686 32.0255C39.6205 31.5801 38.994 31.4165 38.4068 31.3354C37.18 31.166 36.1028 30.1542 35.9267 29.187C35.7053 27.9716 34.7825 26.8308 33.4307 26.7501C32.0788 26.6695 30.9676 27.7782 30.5303 29.1089C30.1726 30.1973 28.9638 31.1075 27.4951 31.3274C26.888 31.4183 26.2497 31.4203 25.4891 31.9585C24.7285 32.4968 24.3997 33.452 24.3061 34.3221C24.2411 34.9265 23.8925 35.46 23.2468 35.9111C22.6016 36.3619 21.6846 36.6519 20.8253 36.6538C18.7546 36.6538 17.1163 35.0109 17.1162 32.9499C17.1162 31.4974 17.9572 30.1844 19.284 29.5791C19.6412 29.4162 19.9241 29.1238 20.0761 28.7604C20.2281 28.3969 20.238 27.9892 20.1038 27.6187C19.8748 26.9872 19.757 26.3221 19.7518 25.652C19.755 22.3722 22.3789 19.7392 25.6683 19.7392C26.5861 19.7398 27.4913 19.9539 28.3118 20.3639C28.6811 20.5482 29.1081 20.5777 29.499 20.4459C29.89 20.3141 30.213 20.0319 30.3971 19.6611C31.1722 18.0985 32.7596 17.1095 34.5089 17.1047Z" fill="white"/>
<path d="M34.5083 15.5404C32.1735 15.5453 30.0422 16.8707 29.0041 18.9634C27.9683 18.4458 26.8265 18.176 25.6687 18.1753C21.5399 18.1753 18.1928 21.5246 18.1928 25.6561C18.1984 26.5084 18.3504 27.3534 18.6409 28.1546C16.764 29.011 15.5596 30.885 15.5596 32.9492C15.5597 35.8595 17.9175 38.2187 20.8259 38.2186C23.1891 38.2145 25.6123 36.7371 25.854 34.4901C26.0014 33.1198 26.5 33.0582 27.7249 32.8748C29.6788 32.5822 31.4253 31.3718 32.0075 29.6002C32.625 27.7213 34.1435 28.0856 34.3954 29.469C34.7129 31.2124 36.3267 32.6274 38.1945 32.8853C39.0852 33.0082 39.4639 33.3122 39.6781 34.0947C40.2649 36.2387 42.5214 37.554 44.8058 37.5599C47.87 37.5598 50.3539 35.0742 50.354 32.0081C50.3533 29.8054 49.0514 27.8115 47.0358 26.9261C47.0483 26.8011 47.0572 26.6757 47.0626 26.5501C47.0625 22.8609 44.0743 19.87 40.3876 19.869C39.5852 17.2944 37.2034 15.5408 34.5083 15.5404Z" fill="#274955"/>
<path d="M24.3431 61.3664C24.3431 61.3231 24.4146 61.1612 24.5011 61.0066C24.6724 60.7019 25.0349 60.4054 25.3863 60.2825C25.5254 60.2339 26.4505 60.19 27.8772 60.1644C30.0461 60.1255 30.1633 60.1167 30.5194 59.9681C30.9619 59.7834 31.5145 59.2788 31.867 58.7375C32.1634 58.2824 32.4311 58.0332 32.7229 57.9406C32.8397 57.9036 33.3366 57.8566 33.8273 57.8364C34.9246 57.791 35.1467 57.7027 35.7861 57.0575C36.0431 56.798 36.3415 56.5641 36.4694 56.5216C36.62 56.4716 37.9063 56.4359 40.2952 56.4156C43.7752 56.3859 43.9064 56.3802 44.2639 56.2404C44.7603 56.0464 45.1917 55.6242 45.566 54.9661C45.8902 54.3962 46.1517 54.1161 46.5022 53.9629C46.6717 53.8889 47.7354 53.8717 52.1627 53.8717C57.3844 53.8717 57.6246 53.877 57.855 53.9997C57.9873 54.0701 58.1432 54.1843 58.2013 54.2533C58.671 54.8114 58.6109 55.8035 58.0812 56.2381C57.6666 56.5782 57.8071 56.5695 52.5514 56.5802L47.6246 56.5903L47.3208 56.3805C46.9332 56.1128 46.718 56.1128 46.4255 56.3806C46.2432 56.5475 46.1963 56.64 46.1963 56.8328C46.1963 57.1541 46.4235 57.4922 46.7518 57.6593C47.0072 57.7894 47.1586 57.7936 51.6033 57.7936C54.6259 57.7936 56.2337 57.8173 56.3159 57.8632C56.4937 57.9625 56.6466 58.3032 56.6 58.4966C56.578 58.5864 56.4879 58.7312 56.3989 58.8184L56.237 58.9769H49.9034H43.5701L42.9889 58.6726L42.4077 58.3684L41.2381 58.3318C40.3279 58.3034 40.0148 58.2697 39.8272 58.1797C39.4539 58.0007 39.1525 58.0282 38.9286 58.2618C38.5964 58.608 38.6908 59.1521 39.1273 59.4079C39.3542 59.5409 39.4678 59.5517 40.6356 59.5517H41.8984L42.4749 59.8391L43.0512 60.1265L48.023 60.1603L52.9948 60.1941L53.1621 60.358C53.2819 60.4754 53.3293 60.5911 53.3293 60.7656C53.3293 61.0883 53.1844 61.289 52.8897 61.3744C52.5257 61.4798 24.3431 61.4718 24.3431 61.3664Z" fill="#274955"/>
<path d="M28.0576 53.8404C26.7639 53.8655 24.1072 53.8718 17.7954 53.872C6.61045 53.8722 6.40949 53.8744 6.20488 54.0045C5.52888 54.4343 5.41182 55.5474 5.98179 56.1265C6.4488 56.601 6.03705 56.5739 12.798 56.5776C19.3565 56.5815 18.9723 56.6019 19.4246 56.2275C19.7671 55.9438 20.1173 55.9459 20.3925 56.2329C20.7761 56.633 20.5748 57.2726 19.9657 57.5903L19.6418 57.7595L13.7191 57.7934L7.79601 57.827L7.63961 58.0168C7.44467 58.2531 7.44211 58.4323 7.62901 58.7171C7.74495 58.8937 7.83488 58.9488 8.06668 58.9854C8.2272 59.0111 11.1307 59.0117 14.519 58.987L20.6792 58.9421L21.0319 58.7565C21.3182 58.6059 21.4824 58.4403 21.9071 57.8737C22.4515 57.1474 22.7673 56.8835 23.3306 56.6841C23.5839 56.5944 23.9909 56.5764 25.7879 56.5761C28.1484 56.5756 28.0372 56.5931 28.4529 56.1538C28.6901 55.9031 29.1157 55.8929 29.3814 56.1312C29.536 56.2698 29.5632 56.3457 29.5632 56.6346C29.5632 56.9308 29.5341 57.0069 29.3364 57.2237C29.2115 57.3606 28.9781 57.5358 28.8176 57.6133C28.5404 57.747 28.4122 57.7546 26.2559 57.7599C24.2393 57.7651 23.9576 57.779 23.7271 57.8847C23.4037 58.0329 23.1675 58.2629 22.8491 58.7401C22.3457 59.4948 21.9907 59.8049 21.3904 60.0148C21.0131 60.1467 20.8307 60.1522 16.2676 60.1622C13.6652 60.1678 11.4435 60.1879 11.3306 60.2067C11.0127 60.2596 10.8551 60.4542 10.8551 60.7935C10.8551 61.0829 10.9953 61.3009 11.2442 61.3983C11.2978 61.4192 13.7345 61.4304 16.659 61.4236L21.9766 61.4111L22.4006 61.2017C22.7327 61.0376 22.9224 60.8773 23.2758 60.4632C23.9758 59.6429 24.1365 59.4923 24.5387 59.2806C25.0849 58.9931 25.5275 58.9444 27.618 58.9413C30.0994 58.9378 30.1453 58.9221 30.9612 57.8043C31.6508 56.8595 32.0544 56.6509 33.2921 56.5991C33.7379 56.5804 34.1989 56.5343 34.3163 56.4969C34.4337 56.4595 34.6962 56.2706 34.8999 56.0774C35.337 55.6623 35.5062 55.5456 35.9648 55.3431C36.3022 55.1941 36.3615 55.1912 39.9442 55.1571L43.5806 55.1228L43.8945 54.9197C44.2371 54.6983 44.5233 54.2412 44.4648 54.008C44.4307 53.8734 44.3861 53.872 39.7491 53.872H35.0671L35.0394 53.8404L28.0576 53.8404Z" fill="#274955"/>
<path d="M45.762 9.81892C45.6962 9.86299 44.5056 9.68696 43.8796 10.0987C42.823 10.7935 42.9902 12.5261 44.2468 12.9313C44.3978 13.0527 48.779 12.9616 48.779 12.9616C48.779 12.9616 49.6249 11.1396 51.8305 10.7145L51.8199 10.7071C53.0315 10.497 54.0784 10.8433 54.1474 10.8433C50.8213 6.23638 46.3307 7.83688 45.762 9.81892ZM53.109 12.0862C51.5339 12.1029 50.3206 12.8764 49.8628 14.3637C49.2536 14.4781 48.3895 14.2202 47.5897 14.5846C46.5998 15.2141 47.242 16.3665 47.79 16.2748C47.8968 16.2963 52.7468 16.3393 52.7468 16.3393C52.7468 16.3393 54.456 14.321 56.7634 14.4713C56.7634 14.4713 54.5842 12.2382 53.2596 12.0879C53.2385 12.0855 53.1857 12.0838 53.109 12.0862ZM55.1413 16.2221C53.5028 16.9109 52.8323 18.965 52.5258 20.0522C52.5258 20.0522 60.1807 20.1433 60.2562 20.0522C59.9882 18.0511 57.7866 15.11 55.1413 16.2221Z" fill="#274955"/>
<path d="M77.0467 32.0904C76.7967 32.0904 76.5267 31.9597 76.2366 31.6984C75.9566 31.4371 75.6966 31.0903 75.4566 30.6581L73.8515 27.7334H72.6065L72.5618 29.9797C72.5618 30.3416 72.5818 30.6129 72.6219 30.7938C72.6717 30.9647 72.7717 31.0803 72.9219 31.1406C73.0819 31.1909 73.3219 31.216 73.6419 31.216L73.6719 31.2763L73.537 31.9095C73.537 31.9095 73.487 31.9045 73.387 31.8944C73.287 31.8944 73.1569 31.8894 72.9969 31.8793C72.8469 31.8793 72.6769 31.8743 72.4869 31.8642C72.3069 31.8642 72.1269 31.8642 71.9468 31.8642C71.6968 31.8541 71.4368 31.8541 71.1668 31.8642C70.9068 31.8743 70.6819 31.8843 70.4919 31.8944C70.3118 31.9045 70.2218 31.9095 70.2218 31.9095L70.3568 31.231C70.8268 31.1808 71.1319 31.0803 71.2719 30.9295C71.4219 30.7687 71.4969 30.4722 71.4969 30.04L71.5122 23.7081C71.5122 23.3865 71.4722 23.1704 71.3922 23.0598C71.3222 22.9493 71.1772 22.894 70.9572 22.894C70.8672 22.894 70.7573 22.899 70.6273 22.9091C70.5073 22.9191 70.4473 22.9242 70.4473 22.9242L70.4172 22.8638L70.5222 22.2005C70.5222 22.2005 70.5772 22.2056 70.6872 22.2156C70.8072 22.2156 70.9572 22.2207 71.1372 22.2307C71.3172 22.2307 71.5022 22.2357 71.6922 22.2458C71.8823 22.2458 72.0473 22.2458 72.1873 22.2458C72.3173 22.2458 72.4823 22.2458 72.6823 22.2458C72.8923 22.2357 73.0973 22.2257 73.2973 22.2156C73.5073 22.2056 73.6824 22.2005 73.8224 22.2005C73.9624 22.1905 74.0323 22.1854 74.0323 22.1854C74.9623 22.1854 75.6974 22.3965 76.2374 22.8186C76.7775 23.2408 77.0475 23.8187 77.0475 24.5524C77.0475 25.1554 76.8525 25.7082 76.4624 26.2107C76.0824 26.7133 75.5425 27.1254 74.8424 27.447L76.4924 30.0702C76.7825 30.5426 77.0625 30.8743 77.3325 31.0652C77.6125 31.2562 77.9525 31.3517 78.3526 31.3517L78.4126 31.412L78.3226 31.9246L77.0467 32.0904ZM74.1816 27.0399C74.1816 27.0399 74.2616 27.0098 74.4216 26.9494C74.5916 26.8791 74.7815 26.7635 74.9915 26.6027C75.2015 26.4419 75.3865 26.2157 75.5465 25.9243C75.7165 25.6328 75.8016 25.266 75.8016 24.8237C75.8016 24.1604 75.5716 23.6628 75.1115 23.3312C74.6615 22.9995 73.9765 22.8337 73.0565 22.8337C72.9564 22.8337 72.8865 22.8588 72.8465 22.9091C72.8167 22.9493 72.7967 23.0397 72.7864 23.1804C72.7463 23.9744 72.7114 24.6579 72.6814 25.2308C72.6614 25.8037 72.6465 26.3564 72.6367 26.8891L74.1816 27.0399ZM81.7719 32.0301C81.1418 32.0301 80.5917 31.8894 80.1217 31.608C79.6517 31.3265 79.2817 30.9396 79.0117 30.4471C78.7517 29.9446 78.6217 29.3616 78.6217 28.6983C78.6217 28.1857 78.7067 27.6982 78.8768 27.2359C79.0567 26.7735 79.3017 26.3665 79.6118 26.0147C79.9218 25.6529 80.2718 25.3715 80.6618 25.1705C81.0618 24.9594 81.4868 24.8539 81.9368 24.8539C83.4268 24.8539 84.1719 25.5825 84.1719 27.0399C84.1719 27.1706 84.1618 27.3062 84.1418 27.447C84.1218 27.5877 84.1018 27.6982 84.0818 27.7786L83.8867 27.9595H79.7467C79.7364 28.8541 79.8964 29.5626 80.2266 30.0853C80.5666 30.5979 81.0416 30.8994 81.6517 30.9898C82.2617 31.0702 82.9817 30.9195 83.8117 30.5376L83.9018 30.5677L84.0667 31.0049C83.8667 31.1456 83.6268 31.2964 83.3468 31.4573C83.0767 31.6181 82.8017 31.7537 82.5217 31.8643C82.2417 31.9748 81.9919 32.0301 81.7719 32.0301ZM79.8068 27.4017L82.5219 27.266C82.6719 27.2459 82.7719 27.2108 82.8219 27.1605C82.8717 27.1103 82.8965 27.0097 82.8965 26.859C82.8965 26.4569 82.7865 26.1504 82.5666 25.9394C82.3565 25.7283 82.0516 25.6227 81.6516 25.6227C81.1915 25.6227 80.7915 25.7835 80.4514 26.1052C80.1114 26.4167 79.8968 26.8489 79.8068 27.4017ZM87.367 32.0301C87.007 32.0301 86.6921 31.9999 86.4221 31.9396C86.152 31.8893 85.942 31.8391 85.792 31.7889C85.652 31.7386 85.5819 31.7134 85.5819 31.7134L85.5373 31.6079C85.5573 31.4974 85.5773 31.3165 85.5974 31.0652C85.6271 30.8039 85.6521 30.5325 85.6721 30.2511C85.7019 29.9696 85.7167 29.7485 85.7167 29.5877L86.2418 29.5123C86.2418 30.1757 86.3517 30.6431 86.5717 30.9144C86.7918 31.1858 87.1668 31.3215 87.6968 31.3215C88.0768 31.3215 88.3968 31.2361 88.6568 31.0652C88.9168 30.8943 89.0469 30.6832 89.0469 30.432C89.0469 30.2611 88.9969 30.1053 88.8969 29.9646C88.7969 29.8239 88.6219 29.6681 88.3719 29.4973C88.1219 29.3264 87.7668 29.1204 87.3067 28.8791C86.7367 28.5877 86.3217 28.2912 86.0617 27.9896C85.8017 27.6881 85.6717 27.3564 85.6717 26.9946C85.6717 26.5825 85.7918 26.2157 86.0318 25.8941C86.2718 25.5725 86.6018 25.3212 87.0218 25.1403C87.4418 24.9493 87.9118 24.8538 88.4318 24.8538C88.8419 24.8538 89.1919 24.894 89.4819 24.9744C89.7819 25.0548 89.9319 25.095 89.9319 25.095L89.9619 25.1704C89.9619 25.1704 89.9419 25.2558 89.9018 25.4267C89.8721 25.5976 89.8321 25.8237 89.7818 26.1052C89.7418 26.3765 89.7068 26.678 89.6768 27.0097L89.1217 27.0549C89.1217 27.0549 89.1266 26.9996 89.1363 26.8891C89.1461 26.7785 89.151 26.6881 89.151 26.6177C89.151 26.2559 89.051 25.9946 88.851 25.8338C88.661 25.6629 88.351 25.5775 87.9209 25.5775C87.5809 25.5775 87.2908 25.6579 87.0508 25.8187C86.8208 25.9795 86.7059 26.1755 86.7059 26.4066C86.7059 26.6478 86.8059 26.874 87.0059 27.0851C87.2159 27.2961 87.5509 27.5223 88.0109 27.7635C88.5509 28.0449 88.971 28.3012 89.271 28.5324C89.581 28.7535 89.7959 28.9696 89.9159 29.1807C90.0459 29.3917 90.111 29.6229 90.111 29.8741C90.111 30.2561 89.9809 30.6129 89.721 30.9446C89.471 31.2762 89.136 31.5426 88.716 31.7436C88.306 31.9345 87.8559 32.0301 87.3659 32.0301L87.367 32.0301ZM94.5223 32.0301C93.8923 32.0301 93.3422 31.8894 92.8722 31.608C92.4022 31.3265 92.0322 30.9396 91.7622 30.4471C91.5022 29.9446 91.3722 29.3616 91.3722 28.6983C91.3722 28.1857 91.4573 27.6982 91.6273 27.2359C91.8072 26.7735 92.0522 26.3665 92.3623 26.0147C92.6723 25.6529 93.0223 25.3715 93.4124 25.1705C93.8124 24.9594 94.2373 24.8539 94.6873 24.8539C96.1773 24.8539 96.9224 25.5825 96.9224 27.0399C96.9224 27.1706 96.9124 27.3062 96.8923 27.447C96.8723 27.5877 96.8523 27.6982 96.8323 27.7786L96.6372 27.9595H92.4971C92.4873 28.8541 92.6474 29.5626 92.9772 30.0853C93.3171 30.5979 93.7921 30.8994 94.4021 30.9898C95.0121 31.0702 95.7321 30.9195 96.5622 30.5376L96.6523 30.5677L96.8172 31.0049C96.6172 31.1456 96.3773 31.2964 96.0973 31.4573C95.8272 31.6181 95.5522 31.7537 95.2722 31.8643C94.9922 31.9748 94.7423 32.0301 94.5223 32.0301ZM92.5572 27.4017L95.2724 27.266C95.4224 27.2459 95.5223 27.2108 95.5723 27.1605C95.6221 27.1103 95.647 27.0097 95.647 26.859C95.647 26.4569 95.537 26.1504 95.317 25.9394C95.107 25.7283 94.802 25.6227 94.402 25.6227C93.942 25.6227 93.542 25.7835 93.2019 26.1052C92.8619 26.4167 92.6472 26.8489 92.5572 27.4017ZM98.4374 31.3064C98.7374 31.2763 98.9375 31.1808 99.0375 31.02C99.1375 30.8491 99.1874 30.5275 99.1874 30.0551V26.7384C99.1874 26.4067 99.1425 26.1705 99.0525 26.0298C98.9625 25.8891 98.8175 25.8187 98.6175 25.8187C98.5375 25.8187 98.4625 25.8288 98.3925 25.8489C98.3325 25.8589 98.3025 25.8639 98.3025 25.8639L98.2278 25.7584L98.2725 25.291C98.5825 25.2307 98.8925 25.1654 99.2025 25.0951C99.5125 25.0247 99.7725 24.9644 99.9825 24.9141C100.193 24.8638 100.297 24.8387 100.297 24.8387L100.403 24.9292C100.403 24.9292 100.388 25.0096 100.358 25.1704C100.338 25.3312 100.318 25.5322 100.298 25.7735C100.278 26.0046 100.268 26.2408 100.268 26.482L100.328 26.5273C100.638 26.0549 100.993 25.6679 101.393 25.3664C101.793 25.0649 102.143 24.9141 102.443 24.9141C102.613 24.9141 102.733 24.9241 102.803 24.9442C102.873 24.9643 102.908 24.9744 102.908 24.9744L102.953 25.0347C102.953 25.0347 102.943 25.1051 102.923 25.2458C102.903 25.3764 102.878 25.5523 102.849 25.7735C102.819 25.9845 102.789 26.2157 102.759 26.4669C102.739 26.7182 102.724 26.9594 102.714 27.1906L102.129 27.2358C102.129 26.8237 102.104 26.5523 102.054 26.4217C102.004 26.281 101.894 26.2106 101.724 26.2106C101.504 26.2106 101.269 26.3011 101.019 26.482C100.769 26.6629 100.539 26.9142 100.329 27.2358C100.329 27.2358 100.324 27.3313 100.315 27.5223C100.304 27.7032 100.294 27.9343 100.285 28.2157C100.275 28.4972 100.265 28.7886 100.254 29.0902C100.245 29.3816 100.235 29.6429 100.224 29.8741C100.215 30.0952 100.21 30.241 100.21 30.3113C100.21 30.6531 100.26 30.8842 100.36 31.0048C100.46 31.1254 100.65 31.1857 100.93 31.1857C101.04 31.1857 101.175 31.1807 101.335 31.1706C101.505 31.1606 101.59 31.1555 101.59 31.1555L101.605 31.2158L101.47 31.8792C101.47 31.8792 101.42 31.8742 101.32 31.8641C101.22 31.8641 101.09 31.8641 100.93 31.8641C100.77 31.8641 100.6 31.8591 100.42 31.849C100.25 31.849 100.09 31.849 99.9403 31.849C99.6503 31.849 99.3852 31.854 99.1452 31.8641C98.9052 31.8742 98.7153 31.8842 98.5752 31.8943C98.4353 31.9044 98.3652 31.9094 98.3652 31.9094L98.4374 31.3064ZM106.253 32.1055C106.253 32.1055 106.218 31.9949 106.148 31.7738C106.078 31.5526 105.988 31.2612 105.878 30.8994C105.768 30.5376 105.643 30.1405 105.503 29.7083C105.363 29.2762 105.223 28.844 105.083 28.4118C104.953 27.9696 104.828 27.5676 104.708 27.2057C104.588 26.8339 104.493 26.5424 104.423 26.3313C104.253 25.8489 103.913 25.5976 103.403 25.5775L103.373 25.5172L103.462 25.0197C103.462 25.0197 103.543 25.0197 103.703 25.0197C103.863 25.0197 104.042 25.0247 104.242 25.0348C104.442 25.0348 104.598 25.0348 104.708 25.0348C105.018 25.0348 105.308 25.0247 105.578 25.0046C105.848 24.9845 106.068 24.9695 106.238 24.9594C106.418 24.9393 106.508 24.9292 106.508 24.9292L106.538 25.0046L106.448 25.4719C106.108 25.482 105.873 25.5172 105.743 25.5775C105.623 25.6277 105.563 25.7232 105.563 25.8639C105.563 25.9343 105.593 26.1001 105.653 26.3614C105.713 26.6127 105.793 26.9193 105.893 27.2811C105.993 27.6329 106.093 27.9997 106.193 28.3816C106.303 28.7535 106.408 29.1053 106.508 29.437C106.608 29.7686 106.688 30.04 106.748 30.2511C106.808 30.4521 106.838 30.5526 106.838 30.5526H106.898C107.268 29.6279 107.583 28.844 107.843 28.2007C108.113 27.5575 108.318 27.0499 108.458 26.6781C108.598 26.3062 108.668 26.0599 108.668 25.9393C108.668 25.7986 108.618 25.7031 108.518 25.6529C108.428 25.6026 108.263 25.5775 108.023 25.5775H107.453L107.393 25.487L107.467 25.0197C107.467 25.0197 107.547 25.0197 107.707 25.0197C107.877 25.0197 108.087 25.0247 108.337 25.0347C108.587 25.0347 108.832 25.0347 109.072 25.0347C109.252 25.0347 109.437 25.0347 109.627 25.0347C109.817 25.0247 109.977 25.0197 110.107 25.0197C110.237 25.0197 110.302 25.0197 110.302 25.0197L110.197 25.5775C109.987 25.6076 109.822 25.693 109.702 25.8338C109.582 25.9745 109.427 26.266 109.237 26.7082L107.092 31.8491L106.253 32.1055ZM115.538 32.0301C115.138 32.0301 114.823 31.9296 114.593 31.7285C114.373 31.5175 114.243 31.2109 114.203 30.8089L114.143 30.7938C113.903 31.035 113.673 31.2461 113.453 31.427C113.243 31.5979 113.053 31.7335 112.883 31.834C112.723 31.9245 112.593 31.9697 112.493 31.9697C112.123 31.9697 111.793 31.8893 111.503 31.7285C111.213 31.5677 110.983 31.3466 110.813 31.0652C110.653 30.7838 110.573 30.4621 110.573 30.1003C110.573 29.8088 110.643 29.5525 110.783 29.3314C110.933 29.1103 111.128 28.9645 111.368 28.8942L114.218 28.1103L114.232 27.4469C114.232 26.9444 114.118 26.5524 113.888 26.271C113.658 25.9895 113.332 25.8489 112.913 25.8489C112.632 25.8489 112.337 25.9142 112.027 26.0448C111.717 26.1755 111.412 26.3614 111.112 26.6027L111.038 26.5574L110.858 25.9092C111.118 25.7584 111.408 25.6026 111.728 25.4418C112.048 25.2709 112.353 25.1302 112.643 25.0197C112.933 24.9091 113.153 24.8539 113.303 24.8539C113.743 24.8539 114.118 24.9342 114.428 25.0951C114.738 25.2458 114.973 25.4669 115.133 25.7584C115.303 26.0398 115.388 26.3866 115.388 26.7986C115.388 26.9293 115.373 27.1404 115.343 27.4319C115.323 27.7233 115.293 28.05 115.253 28.4118C115.213 28.7636 115.178 29.1053 115.148 29.437C115.128 29.7686 115.118 30.045 115.118 30.2662C115.118 30.4873 115.173 30.6581 115.283 30.7788C115.393 30.8994 115.543 30.9596 115.733 30.9596C115.903 30.9596 116.073 30.9195 116.243 30.8391C116.413 30.7486 116.543 30.6632 116.633 30.5828L116.843 30.824C116.763 30.9546 116.653 31.1054 116.513 31.2763C116.383 31.4371 116.233 31.5878 116.063 31.7285C115.903 31.8692 115.728 31.9698 115.538 32.0301ZM112.748 30.9446C112.938 30.9446 113.158 30.8792 113.408 30.7486C113.668 30.6079 113.903 30.432 114.113 30.2209L114.188 28.6832L112.148 29.3013C111.858 29.3917 111.713 29.6028 111.713 29.9345C111.713 30.2159 111.808 30.4571 111.998 30.6581C112.198 30.8491 112.448 30.9446 112.748 30.9446ZM128.468 32.4522C127.738 31.3064 127.038 30.231 126.368 29.2259C125.698 28.2208 125.103 27.3414 124.583 26.5876C124.063 25.8237 123.648 25.2257 123.338 24.7935C123.038 24.3614 122.888 24.1453 122.888 24.1453H122.814L122.739 30.5828C122.739 30.8039 122.774 30.9596 122.844 31.0501C122.914 31.1406 123.034 31.1858 123.204 31.1858C123.254 31.1858 123.339 31.1858 123.459 31.1858C123.589 31.1757 123.704 31.1707 123.804 31.1707C123.914 31.1707 123.969 31.1707 123.969 31.1707L123.999 31.231L123.864 31.9094C123.864 31.9094 123.809 31.9044 123.699 31.8943C123.599 31.8943 123.469 31.8893 123.309 31.8792C123.149 31.8692 122.974 31.8591 122.784 31.8491C122.604 31.8491 122.434 31.8491 122.274 31.8491C122.074 31.8491 121.864 31.8591 121.644 31.8792C121.434 31.8994 121.254 31.9195 121.104 31.9396C120.954 31.9597 120.879 31.9697 120.879 31.9697L120.954 31.2762C121.264 31.236 121.494 31.1456 121.644 31.0049C121.794 30.8642 121.874 30.638 121.884 30.3264L122.079 23.7382C122.079 23.4266 121.984 23.2055 121.794 23.0748C121.614 22.9442 121.274 22.8537 120.774 22.8035L120.729 22.7281L120.849 22.1703C120.849 22.1703 120.924 22.1753 121.074 22.1853C121.234 22.1954 121.414 22.2105 121.614 22.2306C121.824 22.2406 121.999 22.2457 122.139 22.2457C122.309 22.2457 122.469 22.2406 122.619 22.2306C122.769 22.2205 122.894 22.2104 122.994 22.2003C123.094 22.1903 123.144 22.1852 123.144 22.1852C123.644 22.9592 124.134 23.713 124.614 24.4467C125.104 25.1804 125.564 25.8638 125.994 26.497C126.424 27.1302 126.804 27.683 127.134 28.1554C127.464 28.6278 127.719 28.9997 127.899 29.2711C128.089 29.5324 128.184 29.663 128.184 29.663H128.259V23.5572C128.259 23.3361 128.219 23.1753 128.139 23.0748C128.059 22.9642 127.934 22.9089 127.764 22.9089C127.634 22.9089 127.504 22.9139 127.374 22.924C127.254 22.924 127.194 22.924 127.194 22.924L127.164 22.8637L127.299 22.1853C127.299 22.1853 127.349 22.1903 127.449 22.2004C127.549 22.2004 127.674 22.2054 127.824 22.2155C127.974 22.2255 128.129 22.2356 128.289 22.2457C128.449 22.2457 128.594 22.2457 128.724 22.2457C128.934 22.2457 129.154 22.2356 129.384 22.2155C129.614 22.1954 129.809 22.1753 129.969 22.1552C130.129 22.135 130.209 22.125 130.209 22.125L130.134 22.8185C129.794 22.8587 129.539 22.9542 129.369 23.1049C129.209 23.2557 129.124 23.4768 129.114 23.7683L128.904 32.241L128.468 32.4522ZM135.984 32.0301C135.584 32.0301 135.269 31.9296 135.039 31.7285C134.819 31.5175 134.689 31.2109 134.649 30.8089L134.589 30.7938C134.349 31.035 134.119 31.2461 133.899 31.427C133.689 31.5979 133.499 31.7335 133.329 31.834C133.169 31.9245 133.039 31.9697 132.939 31.9697C132.569 31.9697 132.239 31.8893 131.949 31.7285C131.659 31.5677 131.429 31.3466 131.259 31.0652C131.099 30.7838 131.019 30.4621 131.019 30.1003C131.019 29.8088 131.089 29.5525 131.228 29.3314C131.379 29.1103 131.574 28.9645 131.814 28.8942L134.664 28.1103L134.678 27.4469C134.678 26.9444 134.563 26.5524 134.333 26.271C134.103 25.9895 133.778 25.8489 133.358 25.8489C133.078 25.8489 132.783 25.9142 132.473 26.0448C132.163 26.1755 131.858 26.3614 131.558 26.6027L131.483 26.5574L131.303 25.9092C131.563 25.7584 131.854 25.6026 132.174 25.4418C132.494 25.2709 132.798 25.1302 133.089 25.0197C133.379 24.9091 133.599 24.8539 133.749 24.8539C134.189 24.8539 134.564 24.9342 134.874 25.0951C135.184 25.2458 135.419 25.4669 135.579 25.7584C135.749 26.0398 135.834 26.3866 135.834 26.7986C135.834 26.9293 135.819 27.1404 135.789 27.4319C135.769 27.7233 135.739 28.05 135.699 28.4118C135.659 28.7636 135.624 29.1053 135.594 29.437C135.574 29.7686 135.564 30.045 135.564 30.2662C135.564 30.4873 135.619 30.6581 135.729 30.7788C135.839 30.8994 135.989 30.9596 136.179 30.9596C136.349 30.9596 136.519 30.9195 136.689 30.8391C136.859 30.7486 136.989 30.6632 137.079 30.5828L137.289 30.824C137.209 30.9546 137.099 31.1054 136.959 31.2763C136.829 31.4371 136.679 31.5878 136.509 31.7285C136.349 31.8692 136.174 31.9698 135.984 32.0301ZM133.194 30.9446C133.384 30.9446 133.604 30.8792 133.854 30.7486C134.114 30.6079 134.349 30.432 134.559 30.2209L134.633 28.6832L132.593 29.3013C132.303 29.3917 132.158 29.6028 132.158 29.9345C132.158 30.2159 132.253 30.4571 132.443 30.6581C132.643 30.8491 132.894 30.9446 133.194 30.9446ZM140.484 32.0301C139.804 32.0301 139.324 31.8944 139.044 31.623C138.764 31.3416 138.624 30.8692 138.624 30.2058V26.4971C138.624 26.2257 138.564 26.0348 138.444 25.9242C138.324 25.8137 138.099 25.7534 137.769 25.7433L137.709 25.6529L137.783 25.2006C138.023 25.08 138.253 24.9443 138.474 24.7935C138.703 24.6327 138.904 24.482 139.074 24.3413C139.254 24.1905 139.393 24.0699 139.493 23.9794C139.593 23.8789 139.644 23.8287 139.644 23.8287L139.944 23.9492C139.944 23.9492 139.929 24.0448 139.899 24.2357C139.879 24.4267 139.854 24.7081 139.824 25.08L142.029 25.0347L142.074 25.08L141.939 25.879L139.764 25.8338C139.734 26.3062 139.709 26.859 139.689 27.4922C139.669 28.1254 139.659 28.8289 139.659 29.6028C139.659 30.1154 139.744 30.4772 139.914 30.6883C140.094 30.8994 140.399 31.0049 140.829 31.0049C141.079 31.0049 141.309 30.9597 141.519 30.8692C141.739 30.7787 141.849 30.7335 141.849 30.7335L141.999 31.1255C141.999 31.1255 141.939 31.1708 141.819 31.2612C141.699 31.3517 141.549 31.4572 141.369 31.5778C141.199 31.6984 141.029 31.8039 140.859 31.8944C140.699 31.9848 140.574 32.0301 140.484 32.0301ZM143.694 26.6177C143.694 26.3564 143.649 26.1554 143.559 26.0147C143.469 25.874 143.329 25.8036 143.139 25.8036C143.059 25.8036 142.974 25.8137 142.884 25.8338C142.804 25.8539 142.764 25.864 142.764 25.864L142.824 25.3062C143.054 25.266 143.294 25.2208 143.544 25.1705C143.794 25.1202 144.024 25.07 144.234 25.0198C144.454 24.9695 144.629 24.9293 144.759 24.8991C144.899 24.869 144.969 24.8539 144.969 24.8539L145.059 25.0348C145.009 25.1655 144.959 25.3916 144.909 25.7132C144.869 26.0248 144.829 26.3917 144.789 26.8138C144.749 27.236 144.719 27.6832 144.699 28.1556C144.679 28.6179 144.669 29.0702 144.669 29.5124C144.669 30.4974 145.069 30.9899 145.869 30.9899C146.219 30.9899 146.544 30.8944 146.844 30.7035C147.154 30.5024 147.434 30.3115 147.684 30.1305V26.6329C147.684 26.3314 147.629 26.1203 147.519 25.9997C147.409 25.8791 147.214 25.8188 146.934 25.8188C146.894 25.8188 146.824 25.8238 146.724 25.8339C146.624 25.8339 146.574 25.8339 146.574 25.8339L146.634 25.2911C146.904 25.2509 147.174 25.2057 147.444 25.1555C147.714 25.1052 147.959 25.06 148.179 25.0198C148.409 24.9695 148.594 24.9293 148.734 24.8992C148.874 24.869 148.944 24.854 148.944 24.854L149.034 25.0349C148.974 25.1857 148.919 25.5224 148.869 26.045C148.82 26.5676 148.78 27.2008 148.749 27.9446C148.72 28.6883 148.705 29.4622 148.705 30.2663C148.705 30.4874 148.76 30.6582 148.87 30.7789C148.98 30.8995 149.13 30.9598 149.32 30.9598C149.48 30.9598 149.625 30.9296 149.755 30.8693C149.895 30.7989 150.005 30.7336 150.085 30.6733C150.175 30.613 150.22 30.5829 150.22 30.5829L150.43 30.8241C150.43 30.8241 150.385 30.8844 150.295 31.005C150.215 31.1256 150.105 31.2664 149.965 31.4272C149.835 31.588 149.695 31.7287 149.545 31.8493C149.395 31.9699 149.255 32.0302 149.125 32.0302C148.315 32.0302 147.87 31.6232 147.79 30.809L147.715 30.7789C147.235 31.1508 146.8 31.4523 146.41 31.6835C146.03 31.9146 145.77 32.0302 145.63 32.0302C144.99 32.0302 144.495 31.8795 144.145 31.5779C143.805 31.2764 143.635 30.8442 143.635 30.2814L143.694 26.6177ZM151.344 31.3064C151.644 31.2763 151.844 31.1808 151.944 31.02C152.044 30.8491 152.094 30.5275 152.094 30.0551V26.7383C152.094 26.4067 152.049 26.1705 151.959 26.0297C151.869 25.889 151.724 25.8187 151.524 25.8187C151.444 25.8187 151.369 25.8287 151.299 25.8488C151.239 25.8589 151.209 25.8639 151.209 25.8639L151.135 25.7584L151.179 25.291C151.489 25.2307 151.799 25.1654 152.109 25.095C152.419 25.0247 152.679 24.9644 152.889 24.9141C153.099 24.8638 153.204 24.8387 153.204 24.8387L153.31 24.9292C153.31 24.9292 153.295 25.0095 153.265 25.1704C153.245 25.3312 153.225 25.5322 153.205 25.7735C153.185 26.0046 153.175 26.2408 153.175 26.482L153.235 26.5272C153.545 26.0548 153.9 25.6679 154.3 25.3663C154.7 25.0648 155.05 24.9141 155.35 24.9141C155.52 24.9141 155.64 24.9241 155.71 24.9442C155.78 24.9643 155.815 24.9744 155.815 24.9744L155.86 25.0347C155.86 25.0347 155.85 25.105 155.829 25.2457C155.809 25.3764 155.785 25.5523 155.755 25.7734C155.725 25.9845 155.695 26.2156 155.665 26.4669C155.645 26.7182 155.63 26.9594 155.62 27.1906L155.035 27.2358C155.035 26.8237 155.01 26.5523 154.96 26.4217C154.91 26.281 154.8 26.2106 154.63 26.2106C154.41 26.2106 154.175 26.3011 153.925 26.482C153.675 26.6629 153.445 26.9142 153.235 27.2358C153.235 27.2358 153.23 27.3312 153.221 27.5222C153.21 27.7031 153.2 27.9343 153.191 28.2157C153.181 28.4971 153.171 28.7886 153.161 29.0901C153.151 29.3816 153.141 29.6429 153.131 29.8741C153.121 30.0952 153.116 30.2409 153.116 30.3113C153.116 30.653 153.166 30.8842 153.266 31.0048C153.366 31.1254 153.556 31.1857 153.836 31.1857C153.946 31.1857 154.081 31.1807 154.241 31.1706C154.411 31.1606 154.496 31.1555 154.496 31.1555L154.511 31.2158L154.376 31.8791C154.376 31.8791 154.326 31.8741 154.226 31.8641C154.126 31.8641 153.996 31.8641 153.836 31.8641C153.676 31.8641 153.506 31.859 153.326 31.849C153.156 31.849 152.996 31.849 152.846 31.849C152.556 31.849 152.291 31.854 152.051 31.8641C151.811 31.8741 151.621 31.8842 151.481 31.8942C151.341 31.9043 151.271 31.9093 151.271 31.9093L151.344 31.3064ZM161.635 32.0301C161.235 32.0301 160.92 31.9296 160.69 31.7285C160.47 31.5175 160.34 31.2109 160.3 30.8089L160.24 30.7938C160 31.035 159.77 31.2461 159.55 31.427C159.34 31.5979 159.15 31.7335 158.98 31.834C158.82 31.9245 158.69 31.9697 158.59 31.9697C158.22 31.9697 157.89 31.8893 157.6 31.7285C157.31 31.5677 157.079 31.3466 156.91 31.0652C156.75 30.7838 156.669 30.4621 156.669 30.1003C156.669 29.8088 156.74 29.5525 156.879 29.3314C157.029 29.1103 157.224 28.9645 157.465 28.8942L160.315 28.1103L160.33 27.4469C160.33 26.9444 160.215 26.5524 159.985 26.271C159.755 25.9895 159.43 25.8489 159.01 25.8489C158.73 25.8489 158.435 25.9142 158.125 26.0448C157.815 26.1755 157.51 26.3614 157.21 26.6027L157.135 26.5574L156.955 25.9092C157.215 25.7584 157.505 25.6026 157.825 25.4418C158.145 25.2709 158.45 25.1302 158.74 25.0197C159.03 24.9091 159.25 24.8539 159.4 24.8539C159.84 24.8539 160.215 24.9342 160.525 25.0951C160.835 25.2458 161.07 25.4669 161.23 25.7584C161.4 26.0398 161.485 26.3866 161.485 26.7986C161.485 26.9293 161.471 27.1404 161.441 27.4319C161.421 27.7233 161.391 28.05 161.351 28.4118C161.311 28.7636 161.276 29.1053 161.246 29.437C161.226 29.7686 161.216 30.045 161.216 30.2662C161.216 30.4873 161.271 30.6581 161.381 30.7788C161.491 30.8994 161.641 30.9596 161.831 30.9596C162.001 30.9596 162.171 30.9195 162.341 30.8391C162.511 30.7486 162.641 30.6632 162.731 30.5828L162.941 30.824C162.861 30.9546 162.751 31.1054 162.611 31.2763C162.481 31.4371 162.331 31.5878 162.161 31.7285C162.001 31.8692 161.826 31.9698 161.636 32.0301H161.635ZM158.845 30.9446C159.035 30.9446 159.255 30.8792 159.505 30.7486C159.765 30.6079 160 30.432 160.21 30.2209L160.284 28.6832L158.244 29.3013C157.954 29.3917 157.809 29.6028 157.809 29.9345C157.809 30.2159 157.904 30.4571 158.094 30.6581C158.294 30.8491 158.545 30.9446 158.845 30.9446ZM163.45 32.0301L163.51 31.4119C163.8 31.3315 164 31.231 164.11 31.1104C164.23 30.9797 164.3 30.8089 164.32 30.5978C164.34 30.3868 164.35 30.1255 164.35 29.8139V22.4115C164.35 22.1602 164.325 21.9793 164.275 21.8687C164.235 21.7481 164.15 21.6728 164.02 21.6426C163.9 21.6125 163.715 21.6125 163.465 21.6426L163.421 21.6124L163.481 21.0998C163.851 21.0496 164.221 20.9893 164.591 20.9189C164.961 20.8485 165.331 20.7632 165.701 20.6627L165.791 20.8586C165.751 20.929 165.711 21.1602 165.671 21.5521C165.631 21.9341 165.591 22.4416 165.551 23.0748C165.521 23.698 165.491 24.4065 165.461 25.2005C165.431 25.9946 165.406 26.8338 165.386 27.7182C165.376 28.6027 165.371 29.4872 165.371 30.3717C165.371 30.6732 165.411 30.8893 165.491 31.0199C165.571 31.1506 165.706 31.2159 165.896 31.2159L166.421 31.1857L166.451 31.246L166.331 31.8943C166.171 31.8842 165.956 31.8742 165.686 31.8641C165.426 31.854 165.196 31.849 164.996 31.849C164.816 31.849 164.586 31.8641 164.306 31.8942C164.036 31.9344 163.751 31.9797 163.451 32.0299L163.45 32.0301Z" fill="#009492"/>
<path d="M70.0979 46.2783V35.0677H74.5596V37.2333H72.3667V39.4181H74.4709V41.5265H72.3667V44.0935H74.7054V46.2783H70.0979ZM75.4025 46.2783V35.0677H77.7095V46.2783H75.4025ZM81.6642 47.8707V36.7238H83.9711V37.7429C84.1105 37.3905 84.3028 37.1166 84.5479 36.9212C84.7972 36.7217 85.1521 36.6219 85.6127 36.6219C86.2337 36.6219 86.6711 36.849 86.9246 37.3034C87.1823 37.7578 87.3111 38.3523 87.3111 39.0869V43.7877C87.3111 44.2761 87.2414 44.7177 87.102 45.1126C86.9668 45.5033 86.7514 45.8133 86.4556 46.0426C86.164 46.2676 85.7816 46.3802 85.3084 46.3802C84.6915 46.3802 84.2458 46.0065 83.9711 45.2591V47.8707H81.6642ZM84.5099 44.603C84.7465 44.603 84.888 44.4841 84.9345 44.2463C84.9853 44.0085 85.0108 43.7155 85.0108 43.3673V39.6347C85.0108 39.2823 84.9853 38.9893 84.9345 38.7557C84.8879 38.5179 84.7464 38.399 84.5099 38.399C84.2648 38.399 84.1127 38.52 84.0536 38.762C83.9986 38.9998 83.9711 39.2908 83.9711 39.6347V43.3673C83.9711 43.7113 83.9986 44.0043 84.0536 44.2463C84.1127 44.4841 84.2648 44.603 84.5099 44.603ZM89.9033 46.3802C89.3751 46.3802 88.9716 46.2571 88.6927 46.0108C88.4182 45.7645 88.2301 45.4269 88.1287 44.998C88.0273 44.5691 87.9767 44.0828 87.9767 43.5393C87.9767 42.9575 88.0337 42.482 88.1477 42.1125C88.2618 41.7388 88.4562 41.4331 88.7308 41.1953C89.0097 40.9575 89.3921 40.7557 89.8779 40.5901L91.285 40.1061V39.1251C91.285 38.6113 91.1181 38.3544 90.7843 38.3544C90.4801 38.3544 90.328 38.5625 90.328 38.9786V39.5519H88.1224C88.117 39.5179 88.1142 39.4754 88.1142 39.4245C88.1142 39.3693 88.1142 39.3077 88.1142 39.2398C88.1142 38.2886 88.336 37.6155 88.7797 37.2206C89.2275 36.8215 89.9352 36.6219 90.9028 36.6219C91.4098 36.6219 91.8641 36.7132 92.2655 36.8957C92.6669 37.0741 92.9837 37.3395 93.2162 37.692C93.4528 38.0444 93.5711 38.4797 93.5711 38.9977V46.2783H91.3148V45.1445C91.2049 45.5436 91.0233 45.8494 90.7698 46.0617C90.5163 46.274 90.2268 46.3802 89.9015 46.3802H89.9033ZM90.7969 44.6094C90.9828 44.6094 91.1097 44.5308 91.1773 44.3737C91.2448 44.2166 91.2786 44.0468 91.2786 43.8642V41.2016C90.9659 41.329 90.723 41.4904 90.5498 41.6857C90.3765 41.8768 90.2899 42.1592 90.2899 42.5329V43.7623C90.2899 44.327 90.4588 44.6094 90.7969 44.6094ZM94.4474 46.2783V36.7238H96.7544V37.7875C96.8643 37.4181 97.0586 37.1293 97.3375 36.9212C97.6164 36.7132 97.967 36.6091 98.3896 36.6091V38.5137C98.2036 38.5137 97.9818 38.5349 97.7241 38.5774C97.4664 38.6156 97.2403 38.6708 97.0459 38.743C96.8516 38.8109 96.7544 38.8874 96.7544 38.9723V46.2783L94.4474 46.2783ZM100.677 46.3802C100.149 46.3802 99.7459 46.2571 99.467 46.0108C99.1923 45.7645 99.0043 45.4269 98.903 44.998C98.8015 44.5691 98.7508 44.0828 98.7508 43.5393C98.7508 42.9575 98.8078 42.482 98.9219 42.1125C99.0359 41.7388 99.2303 41.4331 99.5049 41.1953C99.7838 40.9575 100.166 40.7557 100.652 40.5901L102.059 40.1061V39.1251C102.059 38.6113 101.892 38.3544 101.558 38.3544C101.254 38.3544 101.102 38.5625 101.102 38.9786V39.5519H98.8966C98.8912 39.5179 98.8885 39.4754 98.8885 39.4245C98.8885 39.3693 98.8885 39.3077 98.8885 39.2398C98.8885 38.2886 99.1103 37.6155 99.554 37.2206C100.002 36.8215 100.71 36.6219 101.677 36.6219C102.184 36.6219 102.638 36.7132 103.04 36.8957C103.441 37.0741 103.758 37.3395 103.99 37.692C104.227 38.0444 104.345 38.4797 104.345 38.9977V46.2783H102.089V45.1445C101.979 45.5436 101.797 45.8494 101.544 46.0617C101.29 46.274 101.001 46.3802 100.676 46.3802H100.677ZM101.571 44.6094C101.757 44.6094 101.884 44.5308 101.951 44.3737C102.019 44.2166 102.053 44.0468 102.053 43.8642V41.2016C101.74 41.329 101.497 41.4904 101.324 41.6857C101.151 41.8768 101.064 42.1592 101.064 42.5329V43.7623C101.064 44.327 101.233 44.6094 101.571 44.6094ZM105.209 36.1378V34.2396H107.478V36.1378H105.209ZM105.209 46.2783V36.7238H107.478V46.2783H105.209ZM110.983 46.3802C109.107 46.3802 108.169 45.4247 108.169 43.5138V42.7559H110.45V43.8769C110.45 44.0935 110.493 44.2633 110.577 44.3865C110.662 44.5096 110.797 44.5712 110.983 44.5712C111.312 44.5712 111.477 44.3228 111.477 43.826C111.477 43.4098 111.39 43.0998 111.217 42.896C111.044 42.6879 110.833 42.4883 110.583 42.2972L109.373 41.3609C108.993 41.0636 108.703 40.7494 108.505 40.4182C108.306 40.0869 108.207 39.6262 108.207 39.036C108.207 38.4882 108.336 38.0359 108.593 37.6792C108.855 37.3225 109.2 37.0571 109.626 36.883C110.057 36.7089 110.522 36.6219 111.021 36.6219C112.863 36.6219 113.784 37.5455 113.784 39.3927V39.571H111.439V39.2079C111.439 39.0169 111.405 38.8321 111.337 38.6538C111.274 38.4754 111.147 38.3863 110.957 38.3863C110.636 38.3863 110.476 38.5561 110.476 38.8958C110.476 39.2398 110.611 39.5094 110.881 39.7047L112.288 40.7367C112.728 41.0551 113.095 41.4331 113.391 41.8705C113.691 42.3079 113.841 42.8896 113.841 43.6157C113.841 44.516 113.585 45.2018 113.074 45.6731C112.567 46.1445 111.87 46.3802 110.983 46.3802ZM117.301 46.3802C115.409 46.3802 114.462 45.3929 114.462 43.4183V39.5838C114.462 38.6835 114.714 37.9659 115.216 37.4308C115.719 36.8915 116.414 36.6219 117.301 36.6219C118.193 36.6219 118.89 36.8915 119.393 37.4308C119.896 37.9659 120.147 38.6835 120.147 39.5838V43.4183C120.147 45.3929 119.199 46.3802 117.301 46.3802ZM117.301 44.6221C117.492 44.6221 117.627 44.5542 117.707 44.4183C117.791 44.2782 117.834 44.102 117.834 43.8897V39.2207C117.834 38.6644 117.656 38.3863 117.301 38.3863C116.946 38.3863 116.769 38.6644 116.769 39.2207V43.8897C116.769 44.102 116.809 44.2782 116.889 44.4183C116.974 44.5542 117.111 44.6221 117.301 44.6221ZM125.895 46.3802C125.456 46.3802 125.107 46.2995 124.85 46.1381C124.592 45.9767 124.4 45.7538 124.273 45.4693C124.146 45.1848 124.062 44.8515 124.019 44.4693C123.982 44.0871 123.963 43.6773 123.963 43.24V39.0869C123.963 38.3523 124.091 37.7578 124.349 37.3034C124.611 36.849 125.053 36.6219 125.674 36.6219C126.134 36.6219 126.487 36.7217 126.732 36.9212C126.981 37.1166 127.174 37.3905 127.309 37.7429V35.0677H129.616V46.2783H127.309V45.2655C127.182 45.6094 127.013 45.8812 126.802 46.0808C126.595 46.2804 126.292 46.3802 125.895 46.3802ZM126.764 44.5967C126.979 44.5967 127.123 44.5096 127.195 44.3355C127.271 44.1614 127.309 43.8493 127.309 43.3992V39.3799C127.309 39.1549 127.275 38.934 127.207 38.7175C127.144 38.4967 127 38.3863 126.776 38.3863C126.531 38.3863 126.377 38.4903 126.314 38.6983C126.25 38.9064 126.218 39.1336 126.218 39.3799V43.3992C126.218 44.1975 126.4 44.5967 126.764 44.5967ZM133.152 46.3802C132.476 46.3802 131.937 46.2528 131.536 45.998C131.135 45.7432 130.847 45.3759 130.674 44.896C130.501 44.4162 130.414 43.8387 130.414 43.1635V39.3226C130.414 38.4351 130.668 37.7641 131.175 37.3098C131.682 36.8512 132.379 36.6219 133.266 36.6219C135.091 36.6219 136.004 37.5221 136.004 39.3226V40.0169C136.004 40.8577 135.996 41.4224 135.979 41.7112H132.683V43.5584C132.683 43.7283 132.694 43.896 132.715 44.0616C132.736 44.223 132.782 44.3568 132.854 44.4629C132.93 44.5691 133.051 44.6221 133.215 44.6221C133.452 44.6221 133.6 44.5202 133.659 44.3164C133.718 44.1083 133.748 43.8387 133.748 43.5075V42.5902H136.004V43.1316C136.004 43.845 135.915 44.4438 135.738 44.9279C135.565 45.4078 135.269 45.7708 134.851 46.0171C134.437 46.2591 133.87 46.3802 133.152 46.3802ZM132.67 40.5774H133.748V39.2907C133.748 38.9468 133.705 38.7005 133.621 38.5519C133.536 38.399 133.41 38.3226 133.241 38.3226C133.059 38.3226 132.918 38.3947 132.816 38.5391C132.719 38.6835 132.67 38.934 132.67 39.2907V40.5774ZM139.87 46.2783V35.0677H142.177V46.2783H139.87ZM145.853 46.3802C143.96 46.3802 143.014 45.3929 143.014 43.4183V39.5838C143.014 38.6835 143.265 37.9659 143.768 37.4308C144.271 36.8915 144.966 36.6219 145.853 36.6219C146.744 36.6219 147.442 36.8915 147.944 37.4308C148.447 37.9659 148.699 38.6835 148.699 39.5838V43.4183C148.699 45.3929 147.75 46.3802 145.853 46.3802ZM145.853 44.6221C146.043 44.6221 146.178 44.5542 146.259 44.4183C146.343 44.2782 146.385 44.102 146.385 43.8897V39.2207C146.385 38.6644 146.208 38.3863 145.853 38.3863C145.498 38.3863 145.321 38.6644 145.321 39.2207V43.8897C145.321 44.102 145.361 44.2782 145.441 44.4183C145.525 44.5542 145.663 44.6221 145.853 44.6221ZM152.14 46.3802C150.264 46.3802 149.326 45.4247 149.326 43.5138V42.7559H151.608V43.8769C151.608 44.0935 151.65 44.2633 151.734 44.3865C151.819 44.5096 151.954 44.5712 152.14 44.5712C152.469 44.5712 152.634 44.3228 152.634 43.826C152.634 43.4098 152.548 43.0998 152.374 42.896C152.201 42.6879 151.99 42.4883 151.741 42.2972L150.53 41.3609C150.15 41.0636 149.86 40.7494 149.662 40.4182C149.463 40.0869 149.364 39.6262 149.364 39.036C149.364 38.4882 149.493 38.0359 149.751 37.6792C150.013 37.3225 150.357 37.0571 150.784 36.883C151.215 36.7089 151.679 36.6219 152.178 36.6219C154.02 36.6219 154.941 37.5455 154.941 39.3927V39.571H152.596V39.2079C152.596 39.0169 152.562 38.8321 152.495 38.6538C152.431 38.4754 152.305 38.3863 152.115 38.3863C151.793 38.3863 151.633 38.5561 151.633 38.8958C151.633 39.2398 151.768 39.5094 152.039 39.7047L153.446 40.7367C153.885 41.0551 154.252 41.4331 154.548 41.8705C154.848 42.3079 154.998 42.8896 154.998 43.6157C154.998 44.516 154.743 45.2018 154.231 45.6731C153.724 46.1445 153.027 46.3802 152.14 46.3802ZM158.776 46.2783V35.0677H161.843C162.646 35.0677 163.25 35.2927 163.656 35.7429C164.061 36.1887 164.264 36.8427 164.264 37.7047V42.9533C164.264 44.0149 164.078 44.8345 163.706 45.412C163.339 45.9895 162.692 46.2783 161.767 46.2783H158.776ZM161.019 44.2973H161.406C161.816 44.2973 162.021 44.0977 162.021 43.6986V37.9149C162.021 37.5412 161.97 37.3013 161.868 37.1951C161.771 37.0847 161.57 37.0295 161.266 37.0295H161.019V44.2973ZM167.8 46.3802C167.124 46.3802 166.586 46.2528 166.184 45.998C165.783 45.7432 165.496 45.3759 165.322 44.896C165.149 44.4162 165.063 43.8387 165.063 43.1635V39.3226C165.063 38.4351 165.316 37.7641 165.823 37.3098C166.33 36.8512 167.027 36.6219 167.915 36.6219C169.74 36.6219 170.652 37.5221 170.652 39.3226V40.0169C170.652 40.8577 170.644 41.4224 170.627 41.7112H167.332V43.5584C167.332 43.7283 167.342 43.896 167.363 44.0616C167.384 44.223 167.431 44.3568 167.503 44.4629C167.579 44.5691 167.699 44.6221 167.864 44.6221C168.101 44.6221 168.248 44.5202 168.308 44.3164C168.367 44.1083 168.396 43.8387 168.396 43.5075V42.5902H170.652V43.1316C170.652 43.845 170.564 44.4438 170.386 44.9279C170.213 45.4078 169.917 45.7708 169.499 46.0171C169.085 46.2591 168.519 46.3802 167.8 46.3802ZM167.319 40.5774H168.396V39.2907C168.396 38.9468 168.354 38.7005 168.269 38.5519C168.185 38.399 168.058 38.3226 167.889 38.3226C167.708 38.3226 167.566 38.3947 167.465 38.5391C167.367 38.6835 167.319 38.934 167.319 39.2907V40.5774ZM174.081 46.3802C172.205 46.3802 171.267 45.4247 171.267 43.5138V42.7559H173.549V43.8769C173.549 44.0935 173.591 44.2633 173.676 44.3865C173.76 44.5096 173.895 44.5712 174.081 44.5712C174.411 44.5712 174.576 44.3228 174.576 43.826C174.576 43.4098 174.489 43.0998 174.316 42.896C174.142 42.6879 173.931 42.4883 173.682 42.2972L172.471 41.3609C172.091 41.0636 171.802 40.7494 171.603 40.4182C171.405 40.0869 171.305 39.6262 171.305 39.036C171.305 38.4882 171.434 38.0359 171.692 37.6792C171.954 37.3225 172.298 37.0571 172.725 36.883C173.156 36.7089 173.621 36.6219 174.119 36.6219C175.961 36.6219 176.882 37.5455 176.882 39.3927V39.571H174.538V39.2079C174.538 39.0169 174.504 38.8321 174.436 38.6538C174.373 38.4754 174.246 38.3863 174.056 38.3863C173.735 38.3863 173.574 38.5561 173.574 38.8958C173.574 39.2398 173.709 39.5094 173.98 39.7047L175.387 40.7367C175.826 41.0551 176.194 41.4331 176.489 41.8705C176.789 42.3079 176.939 42.8896 176.939 43.6157C176.939 44.516 176.684 45.2018 176.173 45.6731C175.666 46.1445 174.968 46.3802 174.081 46.3802ZM180.299 46.3802C179.623 46.3802 179.084 46.2528 178.682 45.998C178.281 45.7432 177.994 45.3759 177.82 44.896C177.647 44.4162 177.561 43.8387 177.561 43.1635V39.3226C177.561 38.4351 177.814 37.7641 178.321 37.3098C178.828 36.8512 179.525 36.6219 180.413 36.6219C182.238 36.6219 183.151 37.5221 183.151 39.3226V40.0169C183.151 40.8577 183.142 41.4224 183.125 41.7112H179.83V43.5584C179.83 43.7283 179.84 43.896 179.861 44.0616C179.882 44.223 179.929 44.3568 180.001 44.4629C180.077 44.5691 180.197 44.6221 180.362 44.6221C180.599 44.6221 180.747 44.5202 180.806 44.3164C180.865 44.1083 180.894 43.8387 180.894 43.5075V42.5902H183.151V43.1316C183.151 43.845 183.062 44.4438 182.884 44.9279C182.711 45.4078 182.415 45.7708 181.997 46.0171C181.583 46.2591 181.017 46.3802 180.299 46.3802ZM179.817 40.5774H180.894V39.2907C180.894 38.9468 180.852 38.7005 180.768 38.5519C180.683 38.399 180.556 38.3226 180.387 38.3226C180.206 38.3226 180.064 38.3947 179.963 38.5391C179.865 38.6835 179.817 38.934 179.817 39.2907V40.5774ZM186.738 46.3802C184.845 46.3802 183.898 45.3929 183.898 43.4183V39.5838C183.898 38.6835 184.15 37.9659 184.653 37.4308C185.155 36.8915 185.85 36.6219 186.738 36.6219C187.629 36.6219 188.326 36.8915 188.829 37.4308C189.332 37.9659 189.583 38.6835 189.583 39.5838V43.4183C189.583 45.3929 188.635 46.3802 186.738 46.3802ZM186.738 44.6221C186.928 44.6221 187.063 44.5542 187.143 44.4183C187.228 44.2782 187.27 44.102 187.27 43.8897V39.2207C187.27 38.6644 187.093 38.3863 186.738 38.3863C186.383 38.3863 186.205 38.6644 186.205 39.2207V43.8897C186.205 44.102 186.245 44.2782 186.326 44.4183C186.41 44.5542 186.548 44.6221 186.738 44.6221ZM193.025 46.3802C191.149 46.3802 190.211 45.4247 190.211 43.5138V42.7559H192.492V43.8769C192.492 44.0935 192.535 44.2633 192.619 44.3865C192.704 44.5096 192.839 44.5712 193.025 44.5712C193.354 44.5712 193.519 44.3228 193.519 43.826C193.519 43.4098 193.432 43.0998 193.259 42.896C193.086 42.6879 192.875 42.4883 192.625 42.2972L191.415 41.3609C191.035 41.0636 190.745 40.7494 190.547 40.4182C190.348 40.0869 190.249 39.6262 190.249 39.036C190.249 38.4882 190.378 38.0359 190.635 37.6792C190.897 37.3225 191.242 37.0571 191.668 36.883C192.099 36.7089 192.564 36.6219 193.063 36.6219C194.905 36.6219 195.826 37.5455 195.826 39.3927V39.571H193.481V39.2079C193.481 39.0169 193.447 38.8321 193.38 38.6538C193.316 38.4754 193.189 38.3863 192.999 38.3863C192.678 38.3863 192.518 38.5561 192.518 38.8958C192.518 39.2398 192.653 39.5094 192.923 39.7047L194.33 40.7367C194.77 41.0551 195.137 41.4331 195.433 41.8705C195.733 42.3079 195.883 42.8896 195.883 43.6157C195.883 44.516 195.627 45.2018 195.116 45.6731C194.609 46.1445 193.912 46.3802 193.025 46.3802Z" fill="#274955"/>
</g>
<defs>
<clipPath id="clip0_3_150">
<rect width="196" height="64" fill="white"/>
</clipPath>
</defs>
</svg>
