<svg width="50" height="52" viewBox="0 0 50 52" fill="none" xmlns="http://www.w3.org/2000/svg">
<path d="M45.3491 33.4594C44.3662 33.1905 43.3331 33.3114 42.4392 33.8004L33.5445 38.5697C33.4768 38.3954 33.3946 38.2249 33.2975 38.0606C32.8443 37.2927 32.1196 36.7404 31.2583 36.5066L17.7259 32.8357C16.9586 32.6275 16.1562 32.6539 15.4046 32.9121L6.62965 35.9249L6.10182 34.4079C6.03663 34.2204 5.89872 34.0675 5.71943 33.9835C5.54015 33.8995 5.33453 33.8907 5.14898 33.9596C3.5166 34.5658 0.943281 35.5068 0.543336 35.6158C0.150913 35.723 -0.0810302 36.1274 0.0261652 36.5192C0.133361 36.9116 0.538321 37.1429 0.930744 37.0357C1.39024 36.9103 3.7335 36.0515 4.95653 35.6002L5.47746 37.0978V37.0984L9.6142 48.9877L5.38343 50.5693C5.00229 50.7116 4.80921 51.136 4.95151 51.5165C5.06247 51.8124 5.34331 51.9948 5.6417 51.9948C5.72758 51.9948 5.81472 51.9791 5.89997 51.9478L10.8046 50.1135C11.1789 49.9737 11.3732 49.5606 11.2422 49.1833L10.9921 48.4655L12.6251 47.8418L25.4741 51.5278C25.8408 51.6331 26.2176 51.6845 26.5937 51.6845C27.324 51.6845 28.0499 51.4895 28.6856 51.1096L46.2763 40.6058C47.1852 40.0798 47.8328 39.2316 48.0992 38.2161C48.3656 37.1993 48.2177 36.1405 47.6811 35.236C47.1608 34.3596 46.3327 33.7283 45.3491 33.4594ZM46.6737 37.8437C46.507 38.4775 46.1026 39.0072 45.5347 39.3345C45.5316 39.3363 45.5284 39.3382 45.5253 39.3401L27.9296 49.8471C27.3152 50.2138 26.5686 50.311 25.8809 50.1135L12.7956 46.3598C12.642 46.3159 12.4784 46.3228 12.3292 46.3799L10.5087 47.0751L7.11297 37.3153L15.8836 34.3038C16.355 34.1421 16.8583 34.1258 17.3398 34.2561L30.8715 37.9271C31.3604 38.06 31.771 38.3728 32.0287 38.8085C32.2857 39.2442 32.3609 39.7551 32.2406 40.2459C32.1171 40.7499 31.8036 41.1737 31.3592 41.4407C30.9141 41.7072 30.3919 41.7836 29.8892 41.6558L21.7962 39.5952C21.4019 39.4949 21.0014 39.7325 20.9004 40.1262C20.8001 40.5199 21.0377 40.9211 21.4326 41.0214L29.525 43.0819C29.8058 43.1534 30.0898 43.1885 30.3719 43.1885C30.9812 43.1885 31.5811 43.0236 32.1171 42.7026C32.9019 42.2319 33.4536 41.484 33.6717 40.5963C33.7093 40.4415 33.7363 40.2854 33.752 40.1293L43.1388 35.0955C43.1407 35.0949 43.1425 35.0937 43.1444 35.0924C43.7017 34.7877 44.3461 34.7113 44.9598 34.8793C45.5729 35.0466 46.0888 35.4403 46.4129 35.9863C46.7471 36.5499 46.8398 37.2093 46.6737 37.8437Z" fill="white"/>
<mask id="mask0_154_2626" style="mask-type:luminance" maskUnits="userSpaceOnUse" x="10" y="0" width="40" height="34">
<path d="M10.3872 0H49.0258V33.5402H10.3872V0Z" fill="white"/>
</mask>
<g mask="url(#mask0_154_2626)">
<path d="M39.5819 16.2874C36.1823 15.9903 33.1859 18.5022 32.8881 21.8973C32.8612 22.2101 32.858 22.5198 32.8768 22.8245C32.003 23.0608 31.1423 23.3467 30.3004 23.6802C30.9699 20.191 31.1486 16.614 30.8182 13.0841C30.9762 13.0308 31.1335 12.9694 31.289 12.8998C33.9532 11.7044 35.1436 8.57814 33.9469 5.91706C32.7502 3.25535 25.1105 0.00250244 25.1105 0.00250244C25.1105 0.00250244 23.1014 7.58329 24.2981 10.245C25.1318 12.0993 26.9046 13.2383 28.804 13.3543C29.0861 11.1652 29.0034 8.99563 28.5489 6.93886C28.4912 6.68748 28.4041 6.35211 28.3427 6.1001C28.2819 5.89637 28.1571 5.47762 28.095 5.27326L27.9609 4.86265C28.0687 5.05009 28.2725 5.42684 28.3715 5.61866C28.5665 5.9741 28.7702 6.41981 28.9363 6.78653C29.0905 7.16015 29.2805 7.62027 29.4071 8.00455C29.6165 8.60885 29.7939 9.22632 29.9387 9.8557C30.4684 15.3239 29.7287 20.9138 27.8123 26.0573C27.7916 26.0391 27.771 26.0209 27.7503 26.0033C27.618 25.8943 27.3259 25.6517 27.1924 25.5426C26.7968 25.2229 26.3893 24.9151 25.9718 24.6205C27.0256 21.4942 25.4252 18.069 22.3109 16.8861C19.1214 15.675 10.446 19.0156 10.446 19.0156C10.446 19.0156 14.7301 27.212 17.9196 28.4231C20.1419 29.2668 22.5485 28.7453 24.2134 27.2734C22.6362 25.2329 20.7732 23.509 18.697 22.1844C18.4412 22.0246 18.092 21.8196 17.8331 21.6616C17.6143 21.5438 17.1649 21.3012 16.9448 21.1833L16.4941 20.9545C16.738 21.021 17.2188 21.1639 17.4589 21.2404C17.914 21.3733 18.4506 21.5739 18.8913 21.7393C19.327 21.9205 19.8642 22.1437 20.2873 22.3568C20.6052 22.5117 20.9199 22.6746 21.2314 22.8458C23.4549 24.1472 25.4521 25.8222 27.1134 27.7931C26.5379 29.1195 25.8822 30.4109 25.1469 31.6559C24.9945 31.9116 24.9494 32.2019 24.9952 32.4752C25.1932 33.03 25.7236 33.4274 26.3473 33.4274C26.4865 33.4274 26.6213 33.4074 26.7492 33.3704C26.9849 33.2531 27.1848 33.0588 27.3071 32.803C28.3483 30.6215 29.1714 28.3497 29.7713 26.0309C29.7845 25.9802 29.797 25.9294 29.8102 25.878C30.2916 25.5746 30.8495 25.2398 31.2789 25.0179C31.3623 24.974 31.4896 24.9051 31.5767 24.858C31.7598 24.7615 32.1008 24.601 32.2851 24.5095C34.9631 23.2357 37.9138 22.5129 40.8845 22.3618C41.1597 22.3512 41.5302 22.3437 41.8117 22.3355C41.9107 22.3361 42.0511 22.338 42.1972 22.3399C42.4624 22.38 42.8379 22.4421 43.0441 22.4809L42.5388 22.491C42.2894 22.501 41.7791 22.5242 41.5302 22.5349C41.2287 22.5637 40.8243 22.5969 40.5247 22.6295C38.078 22.9185 35.6495 23.6595 33.3395 24.811C34.197 26.8597 36.136 28.3767 38.5043 28.5836C41.9038 28.8807 49.0251 23.284 49.0251 23.284C49.0251 23.284 42.9814 16.5846 39.5819 16.2874Z" fill="white"/>
</g>
</svg>
